<?xml version="1.0" encoding="UTF-8"?>
<svg version="1.1" xmlns="http://www.w3.org/2000/svg" width="500" height="500">
<path d="M0 0 C3.34820898 1.46625856 5.69266359 3.33658447 8.3125 5.875 C9.03050781 6.55304688 9.74851563 7.23109375 10.48828125 7.9296875 C12 10 12 10 11.96972656 11.83251953 C10.50998527 15.09525447 7.79927783 16.69019363 4.99609375 18.75 C-9.73377669 30.17239399 -9.73377669 30.17239399 -17.27441406 46.57958984 C-18.69635713 59.35664666 -17.39174475 72.27956754 -16 85 C-6.76 85 2.48 85 12 85 C12 89.29 12 93.58 12 98 C12.66 98 13.32 98 14 98 C14 81.83 14 65.66 14 49 C19.28 49 24.56 49 30 49 C30.495 57.415 30.495 57.415 31 66 C31.99 64.515 31.99 64.515 33 63 C33.66 63 34.32 63 35 63 C35 62.34 35 61.68 35 61 C35.66 61 36.32 61 37 61 C37.2784375 60.42765625 37.556875 59.8553125 37.84375 59.265625 C40.04099813 54.96020636 41.76740085 51.5876152 46 49 C51.92875581 47.97469519 58.03603819 48.54560291 64 49 C63.34 50.65 62.68 52.3 62 54 C61.34 54 60.68 54 60 54 C60 54.66 60 55.32 60 56 C59.34 56 58.68 56 58 56 C57.77570313 56.54140625 57.55140625 57.0828125 57.3203125 57.640625 C55.58851134 60.73532294 53.28380732 63.17925605 50.875 65.75 C50.40707031 66.25660156 49.93914062 66.76320313 49.45703125 67.28515625 C48.30873459 68.52719141 47.15491328 69.76411494 46 71 C47.35759697 74.89962804 49.11227839 77.64825645 51.75 80.8125 C52.80960938 82.10607422 52.80960938 82.10607422 53.890625 83.42578125 C54.58671875 84.27527344 55.2828125 85.12476563 56 86 C57.17742511 87.49157005 58.34536109 88.99072199 59.5 90.5 C59.9846875 91.1290625 60.469375 91.758125 60.96875 92.40625 C62 94 62 94 62 96 C62.66 96 63.32 96 64 96 C64.66 97.65 65.32 99.3 66 101 C60.72 101 55.44 101 50 101 C50.33 102.32 50.66 103.64 51 105 C41.59773279 110.04443546 32.16534481 115.03362654 22.5625 119.6875 C21.8600415 120.038125 21.15758301 120.38875 20.43383789 120.75 C16.77645535 122.49242168 14.82884801 123.32278208 11 122 C9.3173187 121.27161072 7.65179983 120.50297386 6 119.70703125 C4.55282593 119.01250854 4.55282593 119.01250854 3.07641602 118.30395508 C2.06119873 117.8117749 1.04598145 117.31959473 0 116.8125 C-1.03133057 116.31580811 -2.06266113 115.81911621 -3.12524414 115.30737305 C-10.11493353 111.93400912 -17.08501153 108.52441348 -24 105 C-24 104.34 -24 103.68 -24 103 C-18.94998847 103.54468537 -14.99707741 105.28512016 -10.5625 107.625 C-9.14617989 108.34313182 -7.72950434 109.06056299 -6.3125 109.77734375 C-3.50157916 111.21509177 -0.71584323 112.69188621 2.0625 114.19140625 C3.35369935 114.85767725 4.64534796 115.52307851 5.9375 116.1875 C7.08089844 116.79980469 8.22429687 117.41210938 9.40234375 118.04296875 C17.03950823 120.07457059 24.09053755 115.1056552 30.625 111.4375 C35.69669426 108.59385983 40.33289237 106.37587259 46 105 C44.59311081 98.49773269 44.59311081 98.49773269 41 93 C41 92.34 41 91.68 41 91 C40.34 91 39.68 91 39 91 C38.34 89.35 37.68 87.7 37 86 C36.34 86 35.68 86 35 86 C35 85.34 35 84.68 35 84 C34.01 84 33.02 84 32 84 C30.84429296 87.46712111 30.67164707 90.5414956 30.4375 94.1875 C30.29166667 96.45833333 30.14583333 98.72916667 30 101 C15.70235093 101.93631832 1.5673385 101.99004686 -12.75 101.5625 C-14.73045001 101.5090665 -16.71091893 101.45632911 -18.69140625 101.40429688 C-23.46119242 101.27750915 -28.2306275 101.14146444 -33 101 C-34.40019236 88.89468734 -33.89782949 76.84056677 -33.5625 64.6875 C-33.50916217 62.57879122 -33.45642301 60.47006721 -33.40429688 58.36132812 C-33.2764317 53.24068371 -33.14047019 48.1203135 -33 43 C-35.31 43 -37.62 43 -40 43 C-40 40 -40 40 -38.19580078 37.82348633 C-36.95805908 36.59021606 -36.95805908 36.59021606 -35.6953125 35.33203125 C-34.35533203 33.99301758 -34.35533203 33.99301758 -32.98828125 32.62695312 C-32.5185791 32.16554932 -32.04887695 31.70414551 -31.56494141 31.22875977 C-30.12871194 29.81615089 -28.70629161 28.39066681 -27.28515625 26.96289062 C-20.26672408 20 -20.26672408 20 -18 20 C-18 19.34 -18 18.68 -18 18 C-17.34 18 -16.68 18 -16 18 C-16 17.34 -16 16.68 -16 16 C-15.34 16 -14.68 16 -14 16 C-14 15.34 -14 14.68 -14 14 C-13.34 14 -12.68 14 -12 14 C-12 13.34 -12 12.68 -12 12 C-11.34 12 -10.68 12 -10 12 C-10 11.34 -10 10.68 -10 10 C-9.34 10 -8.68 10 -8 10 C-8 9.34 -8 8.68 -8 8 C-7.34 8 -6.68 8 -6 8 C-6 7.34 -6 6.68 -6 6 C-5.34 6 -4.68 6 -4 6 C-4 5.34 -4 4.68 -4 4 C-3.34 4 -2.68 4 -2 4 C-2 3.34 -2 2.68 -2 2 C-1.34 2 -0.68 2 0 2 C0 1.34 0 0.68 0 0 Z " fill="#18416E" transform="translate(235,174)"/>
<path d="M0 0 C5.28 0 10.56 0 16 0 C16.495 8.415 16.495 8.415 17 17 C17.66 16.01 18.32 15.02 19 14 C19.66 14 20.32 14 21 14 C21 13.34 21 12.68 21 12 C21.66 12 22.32 12 23 12 C23.2784375 11.42765625 23.556875 10.8553125 23.84375 10.265625 C26.04099813 5.96020636 27.76740085 2.5876152 32 0 C37.92875581 -1.02530481 44.03603819 -0.45439709 50 0 C49.34 1.65 48.68 3.3 48 5 C47.34 5 46.68 5 46 5 C46 5.66 46 6.32 46 7 C45.34 7 44.68 7 44 7 C43.77570313 7.54140625 43.55140625 8.0828125 43.3203125 8.640625 C41.58851134 11.73532294 39.28380732 14.17925605 36.875 16.75 C36.40707031 17.25660156 35.93914062 17.76320312 35.45703125 18.28515625 C34.30873459 19.52719141 33.15491328 20.76411494 32 22 C33.35759697 25.89962804 35.11227839 28.64825645 37.75 31.8125 C38.80960938 33.10607422 38.80960938 33.10607422 39.890625 34.42578125 C40.58671875 35.27527344 41.2828125 36.12476563 42 37 C43.17742511 38.49157005 44.34536109 39.99072199 45.5 41.5 C45.9846875 42.1290625 46.469375 42.758125 46.96875 43.40625 C48 45 48 45 48 47 C48.66 47 49.32 47 50 47 C50.99 49.475 50.99 49.475 52 52 C46.72 52 41.44 52 36 52 C36.495 53.98 36.495 53.98 37 56 C27.59773279 61.04443546 18.16534481 66.03362654 8.5625 70.6875 C7.8600415 71.038125 7.15758301 71.38875 6.43383789 71.75 C2.77645535 73.49242168 0.82884801 74.32278208 -3 73 C-4.6826813 72.27161072 -6.34820017 71.50297386 -8 70.70703125 C-9.44717407 70.01250854 -9.44717407 70.01250854 -10.92358398 69.30395508 C-11.93880127 68.8117749 -12.95401855 68.31959473 -14 67.8125 C-15.54699585 67.06746216 -15.54699585 67.06746216 -17.12524414 66.30737305 C-24.11493353 62.93400912 -31.08501153 59.52441348 -38 56 C-38 55.34 -38 54.68 -38 54 C-32.94998847 54.54468537 -28.99707741 56.28512016 -24.5625 58.625 C-23.14617989 59.34313182 -21.72950434 60.06056299 -20.3125 60.77734375 C-17.50157916 62.21509177 -14.71584323 63.69188621 -11.9375 65.19140625 C-10.64630065 65.85767725 -9.35465204 66.52307851 -8.0625 67.1875 C-6.34740234 68.10595703 -6.34740234 68.10595703 -4.59765625 69.04296875 C3.03950823 71.07457059 10.09053755 66.1056552 16.625 62.4375 C21.69669426 59.59385983 26.33289237 57.37587259 32 56 C30.59311081 49.49773269 30.59311081 49.49773269 27 44 C27 43.34 27 42.68 27 42 C26.34 42 25.68 42 25 42 C24.34 40.35 23.68 38.7 23 37 C22.34 37 21.68 37 21 37 C21 36.34 21 35.68 21 35 C20.01 35 19.02 35 18 35 C16.84429296 38.46712111 16.67164707 41.5414956 16.4375 45.1875 C16.293125 47.435625 16.14875 49.68375 16 52 C10.39 52 4.78 52 -1 52 C-0.67 34.84 -0.34 17.68 0 0 Z " fill="#7CA13A" transform="translate(249,223)"/>
<path d="M0 0 C3.36335594 1.45745424 5.54534005 3.31117854 8.109375 5.9140625 C8.86347656 6.67460937 9.61757813 7.43515625 10.39453125 8.21875 C11.17183594 9.0128125 11.94914062 9.806875 12.75 10.625 C13.54277344 11.42679688 14.33554687 12.22859375 15.15234375 13.0546875 C17.10614493 15.03202846 19.05512103 17.01388909 21 19 C21.33 17.68 21.66 16.36 22 15 C24.14576637 14.97314062 26.29162645 14.95366912 28.4375 14.9375 C29.63246094 14.92589844 30.82742188 14.91429687 32.05859375 14.90234375 C35 15 35 15 36 16 C35.89558594 17.19496094 35.79117188 18.38992187 35.68359375 19.62109375 C35.25061352 26.11511101 34.97233661 32.07121367 38.80957031 37.61376953 C43.25524714 42.62115714 48.20473036 47.04859966 53.36352539 51.30859375 C55 53 55 53 55 56 C46.61996212 57.70694892 37.67426166 58.73083932 30.03009033 54.26489258 C23.17712529 48.97823279 17.32229297 42.66842897 11.4979248 36.29998779 C9.56642839 34.21433631 7.58388307 32.18128811 5.59751225 30.14803696 C3.22434784 27.7155576 0.87897535 25.25767413 -1.46484375 22.796875 C-2.34156235 21.87694763 -3.21828094 20.95702026 -4.12156677 20.00921631 C-4.91152542 19.1486261 -5.70148407 18.28803589 -6.51538086 17.40136719 C-7.21513535 16.64635925 -7.91488983 15.89135132 -8.635849 15.11346436 C-10 13 -10 13 -9.84693909 10.87237549 C-8.58554228 8.0837352 -6.63628071 6.35587449 -4.4375 4.25 C-3.61121094 3.45078125 -2.78492188 2.6515625 -1.93359375 1.828125 C-1.29550781 1.22484375 -0.65742188 0.6215625 0 0 Z " fill="#AE9646" transform="translate(248,161)"/>
<path d="M0 0 C0.84691406 0.19464844 1.69382813 0.38929688 2.56640625 0.58984375 C3.18386719 0.74582031 3.80132812 0.90179688 4.4375 1.0625 C4.4375 1.7225 4.4375 2.3825 4.4375 3.0625 C5.0975 3.0625 5.7575 3.0625 6.4375 3.0625 C7.0975 4.3825 7.7575 5.7025 8.4375 7.0625 C9.0975 4.7525 9.7575 2.4425 10.4375 0.0625 C12.20663824 -0.15976864 13.97794371 -0.36483873 15.75 -0.5625 C16.73613281 -0.67851562 17.72226563 -0.79453125 18.73828125 -0.9140625 C21.4375 -0.9375 21.4375 -0.9375 24.4375 1.0625 C27.51407277 1.04728313 27.51407277 1.04728313 30.875 0.625 C37.8865345 -0.13278814 37.8865345 -0.13278814 41.4375 1.0625 C41.4375 1.7225 41.4375 2.3825 41.4375 3.0625 C42.0975 3.0625 42.7575 3.0625 43.4375 3.0625 C45.54879637 6.22944455 45.90952483 9.31769913 45.83203125 13.09375 C45.15956358 16.44943026 43.03467314 18.02186396 40.4375 20.0625 C38.0978331 21.23233345 36.60358473 21.2286241 34 21.25 C32.82630859 21.27126953 32.82630859 21.27126953 31.62890625 21.29296875 C29.4375 21.0625 29.4375 21.0625 26.4375 19.0625 C26.4375 18.4025 26.4375 17.7425 26.4375 17.0625 C25.7775 17.0625 25.1175 17.0625 24.4375 17.0625 C24.1075 13.7625 23.7775 10.4625 23.4375 7.0625 C19.69474788 7.63375354 19.69474788 7.63375354 18.4375 9.0625 C18.22912581 10.89156235 18.07000341 12.72638134 17.9375 14.5625 C17.54861111 19.95138889 17.54861111 19.95138889 16.4375 21.0625 C10.04876761 21.53573944 10.04876761 21.53573944 7.5 19.5625 C6.9740625 18.82 6.9740625 18.82 6.4375 18.0625 C5.756875 18.536875 5.07625 19.01125 4.375 19.5 C1.01908044 21.2850636 -1.80411481 21.69403086 -5.5625 22.0625 C-6.2225 24.0425 -6.8825 26.0225 -7.5625 28.0625 C-9.8725 27.4025 -12.1825 26.7425 -14.5625 26.0625 C-14.5625 17.4825 -14.5625 8.9025 -14.5625 0.0625 C-4.4375 -1.0625 -4.4375 -1.0625 0 0 Z M32.4375 6.0625 C30.10358797 8.84364056 30.10358797 8.84364056 30.8125 11.75 C31.01875 12.513125 31.225 13.27625 31.4375 14.0625 C33.4175 14.0625 35.3975 14.0625 37.4375 14.0625 C37.4375 11.7525 37.4375 9.4425 37.4375 7.0625 C35.7875 6.7325 34.1375 6.4025 32.4375 6.0625 Z M-5.5625 7.0625 C-6.84572547 8.1220877 -6.84572547 8.1220877 -6.6875 10.5625 C-6.84572547 13.0029123 -6.84572547 13.0029123 -5.5625 14.0625 C-3.89632885 14.10313832 -2.22861905 14.105221 -0.5625 14.0625 C0.12909401 12.21524948 0.12909401 12.21524948 0.4375 10.0625 C-0.2225 9.0725 -0.8825 8.0825 -1.5625 7.0625 C-2.8825 7.0625 -4.2025 7.0625 -5.5625 7.0625 Z " fill="#1D221E" transform="translate(163.5625,311.9375)"/>
<path d="M0 0 C0.66902344 -0.020625 1.33804688 -0.04125 2.02734375 -0.0625 C6.46906544 -0.09740547 9.22531996 0.52608526 12.75 3.25 C14.0625 5.4375 14.0625 5.4375 14.75 7.25 C15.41 6.92 16.07 6.59 16.75 6.25 C16.75 5.26 16.75 4.27 16.75 3.25 C21.2903862 0.59221296 24.49097035 -0.48810942 29.75 0.25 C32.34482324 1.70958807 34.42726445 3.35388935 36.75 5.25 C37.41 3.6 38.07 1.95 38.75 0.25 C42.71 0.25 46.67 0.25 50.75 0.25 C50.75 2.23 50.75 4.21 50.75 6.25 C50.10417969 6.45496094 49.45835937 6.65992188 48.79296875 6.87109375 C46.44010333 8.11281891 46.44010333 8.11281891 46.17578125 11.03515625 C46.13839844 12.11667969 46.10101563 13.19820313 46.0625 14.3125 C45.81823821 20.18176179 45.81823821 20.18176179 44.75 21.25 C41.75 21.375 41.75 21.375 38.75 21.25 C36.78177114 19.28177114 37.08751619 15.90191291 36.75 13.25 C36.523125 14.178125 36.29625 15.10625 36.0625 16.0625 C34.75 19.25 34.75 19.25 32.5625 21.125 C28.34659186 22.81136325 24.65544776 22.95200707 20.375 21.375 C18.75 20.25 18.75 20.25 17.75 18.25 C16.03619384 17.21442703 16.03619384 17.21442703 13.75 17.25 C12.8425 17.86875 11.935 18.4875 11 19.125 C6.98664323 21.74911789 4.47088817 21.92442151 -0.25 22.25 C-0.25 24.23 -0.25 26.21 -0.25 28.25 C-5 29.375 -5 29.375 -7.25 28.25 C-8.72833423 19.50551354 -8.68438159 10.09094293 -8.25 1.25 C-6.286987 -0.713013 -2.67160806 0.02012511 0 0 Z M0.9375 7.375 C-0.53399746 9.26353208 -0.53399746 9.26353208 0.0625 11.9375 C0.289375 12.700625 0.51625 13.46375 0.75 14.25 C2.73 14.25 4.71 14.25 6.75 14.25 C6.75 11.94 6.75 9.63 6.75 7.25 C3.75985002 6.10732642 3.75985002 6.10732642 0.9375 7.375 Z M23.75 6.25 C23.42 6.91 23.09 7.57 22.75 8.25 C24.73 8.25 26.71 8.25 28.75 8.25 C28.42 7.59 28.09 6.93 27.75 6.25 C26.43 6.25 25.11 6.25 23.75 6.25 Z M13.75 11.25 C14.75 13.25 14.75 13.25 14.75 13.25 Z M22.75 13.25 C26.75 14.25 26.75 14.25 26.75 14.25 Z " fill="#262D29" transform="translate(218.25,311.75)"/>
<path d="M0 0 C2.31 0 4.62 0 7 0 C7 1.65 7 3.3 7 5 C7.680625 4.835 8.36125 4.67 9.0625 4.5 C12.50874167 3.91340567 15.51150412 3.67699112 19 4 C21.55761626 6.38710851 22.30400667 8.63603225 23 12 C23.33 12.33 23.66 12.66 24 13 C25.23921302 10.02588876 26.30058404 7.14737182 27 4 C29.31 4 31.62 4 34 4 C34 6.64 34 9.28 34 12 C33.34 12 32.68 12 32 12 C31.81824219 12.64066406 31.63648438 13.28132813 31.44921875 13.94140625 C28.31511254 24.72594608 28.31511254 24.72594608 26 29 C23.3125 30.4375 23.3125 30.4375 21 31 C21.33 31.66 21.66 32.32 22 33 C23.485 33.495 23.485 33.495 25 34 C26.6875 36.5625 26.6875 36.5625 28 39 C28.99 36.69 29.98 34.38 31 32 C34.96 32 38.92 32 43 32 C44.125 38.625 44.125 38.625 43 42 C44.65 42 46.3 42 48 42 C48.33 42.99 48.66 43.98 49 45 C48.67 45.33 48.34 45.66 48 46 C45.80949979 45.90982004 43.621534 45.75333792 41.4375 45.5625 C40.23996094 45.46066406 39.04242188 45.35882813 37.80859375 45.25390625 C36.88175781 45.17011719 35.95492187 45.08632813 35 45 C35 43.68 35 42.36 35 41 C34.278125 41.845625 33.55625 42.69125 32.8125 43.5625 C30 46 30 46 27.3125 46.0625 C25 45 25 45 23.625 43.0625 C23 41 23 41 24 39 C23.01 39.495 23.01 39.495 22 40 C21.34444881 42.52733235 21.34444881 42.52733235 21 45 C20.01 45 19.02 45 18 45 C15.78461538 37.61538462 15.78461538 37.61538462 16.875 34.5 C17.24625 34.005 17.6175 33.51 18 33 C17.360625 32.7525 16.72125 32.505 16.0625 32.25 C14 31 14 31 13.37109375 28.921875 C13.24863281 28.28765625 13.12617188 27.6534375 13 27 C12.22914063 26.82984375 11.45828125 26.6596875 10.6640625 26.484375 C9.15972656 26.12085938 9.15972656 26.12085938 7.625 25.75 C6.62726563 25.51796875 5.62953125 25.2859375 4.6015625 25.046875 C2 24 2 24 0.68359375 22.18359375 C-0.04596604 19.85317133 -0.37347407 17.7457061 -0.5625 15.3125 C-0.59506307 12.35818712 -0.59506307 12.35818712 -2 10 C-1.29411765 2.58823529 -1.29411765 2.58823529 0 0 Z M7 13 C7 14.32 7 15.64 7 17 C9.475 17.495 9.475 17.495 12 18 C12.66 19.98 13.32 21.96 14 24 C15.65 24.33 17.3 24.66 19 25 C17.7856166 19.23167884 16.12383293 14.99813269 13 10 C10.64345264 10 8.81845016 11.69444604 7 13 Z " fill="#171B17" transform="translate(272,308)"/>
<path d="M0 0 C8.06972408 4.11245554 16.34608666 7.75673777 24.62988281 11.41333008 C25.63776855 11.8718335 25.63776855 11.8718335 26.66601562 12.33959961 C27.36911865 12.62198486 28.07222168 12.90437012 28.79663086 13.1953125 C31.20451582 14.66922615 31.71669814 15.9350994 32.77929688 18.53100586 C33.13668945 19.3851709 33.49408203 20.23933594 33.86230469 21.11938477 C34.2306543 22.03768066 34.59900391 22.95597656 34.97851562 23.90209961 C35.3687793 24.84359863 35.75904297 25.78509766 36.16113281 26.75512695 C37.34226804 29.61154583 38.50551175 32.47474689 39.66601562 35.33959961 C40.62215492 37.67268986 41.58133502 40.0045033 42.54150391 42.3359375 C43.11995246 43.74394782 43.69520259 45.1532768 44.26708984 46.56396484 C45.91225306 50.60479351 47.69853211 54.53723864 49.60351562 58.46459961 C51.52007192 62.70521918 52.50690636 65.63061149 51.66601562 70.33959961 C50.64120461 73.00771993 49.46795981 75.55663561 48.22070312 78.12866211 C46.46018873 81.76469937 44.83721641 85.44711884 43.22851562 89.15209961 C42.93509277 89.82426514 42.64166992 90.49643066 42.33935547 91.18896484 C39.4155959 97.89184768 36.53523882 104.61321556 33.66601562 111.33959961 C32.67601562 111.33959961 31.68601562 111.33959961 30.66601562 111.33959961 C32.13180769 105.55398649 34.34550591 100.3700648 36.85351562 94.96459961 C37.6554795 93.19039411 38.45624051 91.41564446 39.25585938 89.64038086 C40.78074598 86.26870758 42.33866887 82.91559302 43.91992188 79.57006836 C48.08387018 71.41322173 48.08387018 71.41322173 47.97851562 62.65209961 C47.24686 61.19426892 46.47180998 59.75779767 45.66601562 58.33959961 C44.81771295 56.36680268 43.98645598 54.38664559 43.16601562 52.40209961 C42.35350772 50.53168166 41.5409086 48.66130319 40.72753906 46.79125977 C38.3932811 41.40013317 36.09181117 35.9950698 33.79101562 30.58959961 C33.29021484 29.42178955 32.78941406 28.25397949 32.2734375 27.05078125 C31.80744141 25.95499756 31.34144531 24.85921387 30.86132812 23.73022461 C30.22735107 22.24570801 30.22735107 22.24570801 29.58056641 20.73120117 C28.66601562 18.33959961 28.66601562 18.33959961 28.66601562 16.33959961 C28.12952393 16.23019043 27.59303223 16.12078125 27.0402832 16.00805664 C24.0849753 15.17601211 21.45885652 13.94673867 18.67773438 12.64428711 C17.5037207 12.09538818 16.32970703 11.54648926 15.12011719 10.98095703 C14.50463013 10.69159271 13.88914307 10.40222839 13.25500488 10.10409546 C11.34271272 9.20954613 9.42474229 8.32837263 7.50488281 7.45019531 C-3.14073297 2.55901459 -3.14073297 2.55901459 -7.95507812 -0.35961914 C-11.35930482 -2.38913809 -14.38136743 -3.93837669 -18.33398438 -4.66040039 C-23.48010024 -3.25198973 -27.54027973 -0.83346181 -32.03271484 1.98120117 C-36.36141091 4.5363534 -40.96108641 6.54902639 -45.52148438 8.65209961 C-52.01660464 11.65431017 -52.01660464 11.65431017 -58.25976562 15.13256836 C-60.33398438 16.33959961 -60.33398438 16.33959961 -63.33398438 16.33959961 C-63.72972656 17.59385742 -64.12546875 18.84811523 -64.53320312 20.14038086 C-66.40564575 25.75332105 -68.75190177 31.12069026 -71.14648438 36.52709961 C-72.03716823 38.560928 -72.92779338 40.59478211 -73.81835938 42.62866211 C-75.30171988 46.00125013 -76.79162376 49.37081312 -78.28710938 52.73803711 C-78.8236638 53.95934906 -79.36013107 55.18069931 -79.89648438 56.40209961 C-80.35152344 57.42432617 -80.8065625 58.44655273 -81.27539062 59.49975586 C-82.69639869 63.31183285 -83.84310892 66.61686424 -82.66210938 70.61303711 C-82.30632812 71.30655273 -81.95054687 72.00006836 -81.58398438 72.71459961 C-79.92507605 76.11141189 -78.54020229 79.49522042 -77.24414062 83.05053711 C-76.07372734 85.99415164 -74.7373253 88.84472955 -73.39648438 91.71459961 C-66.33398438 106.86110834 -66.33398438 106.86110834 -66.33398438 111.33959961 C-67.81898438 110.84459961 -67.81898438 110.84459961 -69.33398438 110.33959961 C-70.43024365 108.04524277 -71.34329942 105.84443995 -72.20898438 103.46459961 C-72.73685435 102.07838988 -73.26681652 100.69297511 -73.79882812 99.30834961 C-74.05905762 98.62643555 -74.31928711 97.94452148 -74.58740234 97.24194336 C-75.55709221 94.77110508 -76.64734889 92.36869134 -77.77148438 89.96459961 C-78.16207031 89.10350586 -78.55265625 88.24241211 -78.95507812 87.35522461 C-79.7186625 85.68528937 -80.48783696 84.01775621 -81.27978516 82.36108398 C-88.26479137 67.65370998 -88.26479137 67.65370998 -86.64648438 62.71459961 C-85.89958237 61.24386594 -85.12435995 59.78743475 -84.33398438 58.33959961 C-83.58393842 56.43733829 -82.83517791 54.53446964 -82.1081543 52.62329102 C-78.9724596 44.38603562 -78.9724596 44.38603562 -76.83007812 40.87475586 C-74.88991666 37.58711933 -73.66712928 34.10984639 -72.39648438 30.52709961 C-71.42065714 27.77847574 -70.39714027 25.05558793 -69.33398438 22.33959961 C-69.08914307 21.64044434 -68.84430176 20.94128906 -68.59204102 20.22094727 C-66.4043066 14.82786868 -63.61379232 12.86201583 -58.37695312 10.48583984 C-57.47589844 10.10758057 -56.57484375 9.72932129 -55.64648438 9.33959961 C-53.75705405 8.4973926 -51.86773274 7.65494102 -49.97851562 6.81225586 C-49.03314941 6.40120605 -48.0877832 5.99015625 -47.11376953 5.56665039 C-44.49844733 4.41219673 -41.9194021 3.20476022 -39.34570312 1.96069336 C-38.58153076 1.59137695 -37.8173584 1.22206055 -37.0300293 0.84155273 C-35.60374625 0.15021376 -34.1780902 -0.54242082 -32.75317383 -1.23657227 C-29.30118629 -2.87852403 -26.13011061 -4.12748267 -22.33398438 -4.66040039 C-22.33398438 -5.32040039 -22.33398438 -5.98040039 -22.33398438 -6.66040039 C-14.661043 -9.08790175 -6.70669176 -3.43515456 0 0 Z " fill="#6CA7AC" transform="translate(266.333984375,155.660400390625)"/>
<path d="M0 0 C2.64 0.33 5.28 0.66 8 1 C7.63788868 4.25900191 6.89231898 5.10242829 4.4375 7.4375 C1.81298109 9.73675278 1.81298109 9.73675278 1.5 12.5625 C2.08023343 15.39113795 3.17820292 16.79866186 5 19 C5 19.66 5 20.32 5 21 C5.99 21.33 6.98 21.66 8 22 C8.6875 24.0625 8.6875 24.0625 9 26 C6.36925427 27.82128551 5.21799335 28.0317907 2 27.5625 C-2.12661641 25.41322062 -3.00389538 23.14575575 -5 19 C-5.99 19 -6.98 19 -8 19 C-7.79375 19.94875 -7.5875 20.8975 -7.375 21.875 C-7.25125 22.90625 -7.1275 23.9375 -7 25 C-9 27 -9 27 -12 27.125 C-12.99 27.08375 -13.98 27.0425 -15 27 C-17.13060512 26.93599613 -17.13060512 26.93599613 -19.6953125 27.52734375 C-23.23601728 28.03375661 -26.31846214 27.88912082 -29.875 27.5625 C-31.02742188 27.46066406 -32.17984375 27.35882813 -33.3671875 27.25390625 C-34.23601562 27.17011719 -35.10484375 27.08632813 -36 27 C-38.67655133 18.970346 -36.80911035 9.27893271 -36 1 C-33.69 1 -31.38 1 -29 1 C-29 7.27 -29 13.54 -29 20 C-25.04 19.67 -21.08 19.34 -17 19 C-16.67 13.06 -16.34 7.12 -16 1 C-13.36 1 -10.72 1 -8 1 C-7.67 3.64 -7.34 6.28 -7 9 C-4.03595495 6.19195732 -1.55500981 3.81684226 0 0 Z " fill="#0D120E" transform="translate(344,306)"/>
<path d="M0 0 C3.36335594 1.45745424 5.54534005 3.31117854 8.109375 5.9140625 C8.86347656 6.67460937 9.61757813 7.43515625 10.39453125 8.21875 C11.17183594 9.0128125 11.94914062 9.806875 12.75 10.625 C13.54277344 11.42679688 14.33554687 12.22859375 15.15234375 13.0546875 C17.10614493 15.03202846 19.05512103 17.01388909 21 19 C21.33 17.68 21.66 16.36 22 15 C24.14576637 14.97314062 26.29162645 14.95366912 28.4375 14.9375 C29.63246094 14.92589844 30.82742188 14.91429687 32.05859375 14.90234375 C35 15 35 15 36 16 C36.07325168 18.86267567 36.09238205 21.700719 36.0625 24.5625 C36.05798828 25.36880859 36.05347656 26.17511719 36.04882812 27.00585938 C36.03700518 29.00393756 36.01906914 31.00197783 36 33 C35.67 33 35.34 33 35 33 C34.67 27.39 34.34 21.78 34 16 C30.37 16 26.74 16 23 16 C23 17.65 23 19.3 23 21 C22.071875 20.9175 21.14375 20.835 20.1875 20.75 C16.9232084 20.64542705 16.9232084 20.64542705 15.1875 22.9375 C14.795625 23.618125 14.40375 24.29875 14 25 C13.67 25.33 13.34 25.66 13 26 C13.33 26 13.66 26 14 26 C14 27.98 14 29.96 14 32 C14.66 32.33 15.32 32.66 16 33 C15.34 34.32 14.68 35.64 14 37 C10.54781018 33.67125189 7.11225473 30.32652081 3.69116211 26.96582031 C2.52471032 25.82453907 1.35381414 24.68778212 0.1784668 23.55566406 C-1.50876271 21.92897255 -3.17942172 20.28676277 -4.84765625 18.640625 C-5.64285423 17.88413666 -5.64285423 17.88413666 -6.45411682 17.11236572 C-7.91040039 15.65722656 -7.91040039 15.65722656 -10 13 C-9.90965934 8.92021569 -7.27674225 6.96927427 -4.4375 4.25 C-3.61121094 3.45078125 -2.78492188 2.6515625 -1.93359375 1.828125 C-1.29550781 1.22484375 -0.65742188 0.6215625 0 0 Z " fill="#B19E51" transform="translate(248,161)"/>
<path d="M0 0 C1.25 3.0625 1.25 3.0625 2 6 C3.65 6.33 5.3 6.66 7 7 C7.33 6.34 7.66 5.68 8 5 C8.33 6.32 8.66 7.64 9 9 C10.32 9.33 11.64 9.66 13 10 C13 10.66 13 11.32 13 12 C11.68 12.33 10.36 12.66 9 13 C9.33 13.66 9.66 14.32 10 15 C10.99 15.33 11.98 15.66 13 16 C14.6875 18.5625 14.6875 18.5625 16 21 C16.99 18.69 17.98 16.38 19 14 C22.96 14 26.92 14 31 14 C32.125 20.625 32.125 20.625 31 24 C32.65 24 34.3 24 36 24 C36.495 25.485 36.495 25.485 37 27 C36.505 27.495 36.505 27.495 36 28 C33.80949979 27.90982004 31.621534 27.75333792 29.4375 27.5625 C28.23996094 27.46066406 27.04242188 27.35882813 25.80859375 27.25390625 C24.88175781 27.17011719 23.95492187 27.08632813 23 27 C23 25.68 23 24.36 23 23 C22.278125 23.845625 21.55625 24.69125 20.8125 25.5625 C18 28 18 28 15.3125 28.0625 C13 27 13 27 11.625 25.0625 C11 23 11 23 12 21 C11.34 21.33 10.68 21.66 10 22 C9.34444881 24.52733235 9.34444881 24.52733235 9 27 C8.01 27 7.02 27 6 27 C3.78461538 19.61538462 3.78461538 19.61538462 4.875 16.5 C5.24625 16.005 5.6175 15.51 6 15 C5.0409375 14.62875 5.0409375 14.62875 4.0625 14.25 C2 13 2 13 1 9 C-2.63 8.01 -6.26 7.02 -10 6 C-10.33 4.68 -10.66 3.36 -11 2 C-8.0097593 -0.9902407 -3.88390267 -2.00891518 0 0 Z " fill="#1E2420" transform="translate(284,326)"/>
<path d="M0 0 C1.093125 0.00257813 2.18625 0.00515625 3.3125 0.0078125 C4.405625 0.00523437 5.49875 0.00265625 6.625 0 C9.3125 0.1328125 9.3125 0.1328125 10.3125 1.1328125 C10.68010731 3.46099214 11.01491581 5.794651 11.3125 8.1328125 C12.3025 8.1328125 13.2925 8.1328125 14.3125 8.1328125 C14.3125 6.1528125 14.3125 4.1728125 14.3125 2.1328125 C15.3025 2.1328125 16.2925 2.1328125 17.3125 2.1328125 C17.6425 2.7928125 17.9725 3.4528125 18.3125 4.1328125 C18.6425 3.6171875 18.9725 3.1015625 19.3125 2.5703125 C21.77479584 0.80053737 22.56742998 1.06122368 25.5 1.4453125 C26.758125 1.6721875 28.01625 1.8990625 29.3125 2.1328125 C29.3125 4.1328125 29.3125 6.1328125 29.3125 8.1328125 C30.6325 8.4628125 31.9525 8.7928125 33.3125 9.1328125 C32.9825 10.4528125 32.6525 11.7728125 32.3125 13.1328125 C28.97916667 13.1328125 25.64583333 13.1328125 22.3125 13.1328125 C22.3125 12.1428125 22.3125 11.1528125 22.3125 10.1328125 C20.9925 10.1328125 19.6725 10.1328125 18.3125 10.1328125 C18.065 10.7721875 17.8175 11.4115625 17.5625 12.0703125 C16.3125 14.1328125 16.3125 14.1328125 14.5 15.0078125 C11.68487823 15.1686766 9.835994 14.32446245 7.3125 13.1328125 C7.3125 12.4728125 7.3125 11.8128125 7.3125 11.1328125 C6.3225 11.7928125 5.3325 12.4528125 4.3125 13.1328125 C2.26953125 13.328125 2.26953125 13.328125 0.125 13.2578125 C-1.7621875 13.1959375 -1.7621875 13.1959375 -3.6875 13.1328125 C-3.71436553 11.15371852 -3.73383375 9.17452279 -3.75 7.1953125 C-3.76160156 6.09316406 -3.77320313 4.99101562 -3.78515625 3.85546875 C-3.6544871 0.2124129 -3.6349586 0.17963458 0 0 Z M7.3125 6.1328125 C6.9825 7.1228125 6.6525 8.1128125 6.3125 9.1328125 C6.9725 9.1328125 7.6325 9.1328125 8.3125 9.1328125 C7.9825 8.1428125 7.6525 7.1528125 7.3125 6.1328125 Z " fill="#39433B" transform="translate(184.6875,339.8671875)"/>
<path d="M0 0 C2.64 0.33 5.28 0.66 8 1 C7.63788868 4.25900191 6.89231898 5.10242829 4.4375 7.4375 C1.81298109 9.73675278 1.81298109 9.73675278 1.5 12.5625 C2.08023343 15.39113795 3.17820292 16.79866186 5 19 C5 19.66 5 20.32 5 21 C5.99 21.33 6.98 21.66 8 22 C8.6875 24.0625 8.6875 24.0625 9 26 C6.36925427 27.82128551 5.21799335 28.0317907 2 27.5625 C-2.12661641 25.41322062 -3.00389538 23.14575575 -5 19 C-5.99 19 -6.98 19 -8 19 C-8.33 19.99 -8.66 20.98 -9 22 C-11.17870995 18.53969596 -10.85121889 16.89768651 -10 13 C-9.78847906 11.06497509 -9.60108624 9.12716545 -9.4375 7.1875 C-9.35371094 6.21167969 -9.26992188 5.23585938 -9.18359375 4.23046875 C-9.12300781 3.49441406 -9.06242187 2.75835937 -9 2 C-9.928125 2.7115625 -9.928125 2.7115625 -10.875 3.4375 C-13 5 -13 5 -15 6 C-15 7.98 -15 9.96 -15 12 C-15.33 12 -15.66 12 -16 12 C-16 8.37 -16 4.74 -16 1 C-13.36 1 -10.72 1 -8 1 C-7.67 3.64 -7.34 6.28 -7 9 C-4.03595495 6.19195732 -1.55500981 3.81684226 0 0 Z " fill="#1A211D" transform="translate(344,306)"/>
<path d="M0 0 C0 0.66 0 1.32 0 2 C0.66 2 1.32 2 2 2 C4.11129637 5.16694455 4.47202483 8.25519913 4.39453125 12.03125 C3.72206358 15.38693026 1.59717314 16.95936396 -1 19 C-3.40545638 20.20272819 -4.94996953 20.10071472 -7.625 20.0625 C-8.85089844 20.04896484 -8.85089844 20.04896484 -10.1015625 20.03515625 C-10.72804687 20.02355469 -11.35453125 20.01195312 -12 20 C-13 18 -13 18 -12.5 15.9375 C-11 14 -11 14 -7.375 13.25 C-5.704375 13.12625 -5.704375 13.12625 -4 13 C-4.33 10.69 -4.66 8.38 -5 6 C-6.32 6 -7.64 6 -9 6 C-9.226875 6.928125 -9.45375 7.85625 -9.6875 8.8125 C-11.2088437 12.50719183 -12.46352496 13.32482761 -16 15 C-16.98726979 10.31046852 -17.58722142 7.3306392 -15.1875 3.0625 C-11.360312 -2.2955632 -6.03462844 -1.9310811 0 0 Z " fill="#171E19" transform="translate(205,313)"/>
<path d="M0 0 C0.66 0 1.32 0 2 0 C1.43057005 4.1132629 0.50501374 7.62747698 -1.109375 11.44921875 C-1.53476563 12.46306641 -1.96015625 13.47691406 -2.3984375 14.52148438 C-2.84445313 15.56626953 -3.29046875 16.61105469 -3.75 17.6875 C-4.18054688 18.71294922 -4.61109375 19.73839844 -5.0546875 20.79492188 C-7.59678871 26.81909286 -10.24047234 32.78773243 -12.98706055 38.72143555 C-14.64574975 42.45258674 -15.67271505 45.1064317 -14.26171875 49.078125 C-13.57297028 50.64177018 -12.85136249 52.19125775 -12.1015625 53.7265625 C-10.84315536 56.32370065 -9.89769507 59.00195123 -8.91015625 61.7109375 C-7.73974297 64.65455203 -6.40334093 67.50512994 -5.0625 70.375 C2 85.52150873 2 85.52150873 2 90 C0.515 89.505 0.515 89.505 -1 89 C-2.09625927 86.70564316 -3.00931505 84.50484034 -3.875 82.125 C-4.40286997 80.73879027 -4.93283215 79.3533755 -5.46484375 77.96875 C-5.72507324 77.28683594 -5.98530273 76.60492188 -6.25341797 75.90234375 C-7.22310784 73.43150547 -8.31336451 71.02909173 -9.4375 68.625 C-9.82808594 67.76390625 -10.21867188 66.9028125 -10.62109375 66.015625 C-11.38467813 64.34568976 -12.15385258 62.6781566 -12.94580078 61.02148438 C-19.930807 46.31411037 -19.930807 46.31411037 -18.3125 41.375 C-17.565598 39.90426633 -16.79037558 38.44783514 -16 37 C-15.24995405 35.09773868 -14.50119354 33.19487003 -13.77416992 31.28369141 C-10.63497045 23.03722922 -10.63497045 23.03722922 -8.5078125 19.5625 C-6.48050558 16.11712866 -5.21883792 12.50464263 -3.875 8.75 C-1.12190083 1.12190083 -1.12190083 1.12190083 0 0 Z " fill="#5A9288" transform="translate(198,177)"/>
<path d="M0 0 C1.65 0 3.3 0 5 0 C5 2.97 5 5.94 5 9 C5.99 9.495 5.99 9.495 7 10 C7 10.66 7 11.32 7 12 C-0.32064497 15.69235708 -7.65535189 19.35563945 -15 23 C-15.74362793 23.37157227 -16.48725586 23.74314453 -17.25341797 24.12597656 C-19.03764735 25.01342747 -20.83087191 25.88273533 -22.625 26.75 C-24.06746094 27.45382812 -24.06746094 27.45382812 -25.5390625 28.171875 C-29.84276734 29.62010583 -33.06692205 27.60223929 -37 25.70703125 C-37.96478271 25.24401611 -38.92956543 24.78100098 -39.92358398 24.30395508 C-40.93880127 23.8117749 -41.95401855 23.31959473 -43 22.8125 C-44.03133057 22.31580811 -45.06266113 21.81911621 -46.12524414 21.30737305 C-53.11493353 17.93400912 -60.08501153 14.52441348 -67 11 C-67 10.34 -67 9.68 -67 9 C-61.94998847 9.54468537 -57.99707741 11.28512016 -53.5625 13.625 C-52.14617989 14.34313182 -50.72950434 15.06056299 -49.3125 15.77734375 C-46.50157916 17.21509177 -43.71584323 18.69188621 -40.9375 20.19140625 C-39.64630065 20.85767725 -38.35465204 21.52307851 -37.0625 22.1875 C-35.34740234 23.10595703 -35.34740234 23.10595703 -33.59765625 24.04296875 C-25.96049177 26.07457059 -18.90946245 21.1056552 -12.375 17.4375 C-7.30330574 14.59385983 -2.66710763 12.37587259 3 11 C2.690625 9.741875 2.38125 8.48375 2.0625 7.1875 C1.80146484 6.12595703 1.80146484 6.12595703 1.53515625 5.04296875 C1.08989295 3.34316798 0.55566015 1.66698046 0 0 Z " fill="#77A884" transform="translate(278,268)"/>
<path d="M0 0 C2.1875 2 2.1875 2 3 5 C2.60179038 9.26969208 2.08612602 12.91387398 -1 16 C-3.27734375 16.3359375 -3.27734375 16.3359375 -5.9375 16.375 C-7.25041016 16.41753906 -7.25041016 16.41753906 -8.58984375 16.4609375 C-11 16 -11 16 -12.76171875 14.19140625 C-14.52018738 11.07941603 -14.87507801 8.5602768 -15 5 C-13.75 2.125 -13.75 2.125 -12 0 C-7.82562681 -1.39145773 -4.24089948 -1.11726851 0 0 Z " fill="#AD954B" transform="translate(255,201)"/>
<path d="M0 0 C0 0.66 0 1.32 0 2 C1.32 2 2.64 2 4 2 C5.11544282 5.34632847 4.67217232 6.63913839 4 10 C4.33 10.99 4.66 11.98 5 13 C2.03 13 -0.94 13 -4 13 C-4.66 11.02 -5.32 9.04 -6 7 C-6.33 8.98 -6.66 10.96 -7 13 C-9.97 13 -12.94 13 -16 13 C-17.10647808 10.78704384 -17.19588368 9.45327301 -17.25 7 C-17.27578125 6.29875 -17.3015625 5.5975 -17.328125 4.875 C-17.21984375 4.25625 -17.1115625 3.6375 -17 3 C-13.90768389 0.93845593 -13.39241113 0.77605555 -9.9375 0.9375 C-6.02388651 0.99962085 -3.92116541 0 0 0 Z M-2 4 C-2 4.66 -2 5.32 -2 6 C-1.34 5.67 -0.68 5.34 0 5 C-0.66 4.67 -1.32 4.34 -2 4 Z " fill="#1B221C" transform="translate(241,340)"/>
<path d="M0 0 C1.32 0 2.64 0 4 0 C4 0.99 4 1.98 4 3 C6.475 3.99 6.475 3.99 9 5 C8.01 5.495 8.01 5.495 7 6 C7 8.31 7 10.62 7 13 C8.98 13 10.96 13 13 13 C13 14.98 13 16.96 13 19 C10.35261084 20.4606285 9.10551666 21 6 21 C6 22.98 6 24.96 6 27 C4.35 27.33 2.7 27.66 1 28 C-0.35700647 25.28598706 -0.1123861 23.15153684 -0.09765625 20.1171875 C-0.09443359 18.95058594 -0.09121094 17.78398437 -0.08789062 16.58203125 C-0.07951172 15.35871094 -0.07113281 14.13539063 -0.0625 12.875 C-0.05798828 11.64394531 -0.05347656 10.41289062 -0.04882812 9.14453125 C-0.0370133 6.09630608 -0.02054028 3.04817686 0 0 Z " fill="#111512" transform="translate(212,313)"/>
<path d="M0 0 C1.03930664 0.07831055 1.03930664 0.07831055 2.09960938 0.15820312 C3.79604437 0.28689819 5.49184863 0.42386184 7.1875 0.5625 C7.1875 1.2225 7.1875 1.8825 7.1875 2.5625 C6.1975 2.5625 5.2075 2.5625 4.1875 2.5625 C4.74826801 5.05254504 4.74826801 5.05254504 6.1875 7.5625 C9.21732306 8.93439827 9.21732306 8.93439827 12.1875 9.5625 C12.1875 10.2225 12.1875 10.8825 12.1875 11.5625 C10.72376953 11.54509766 10.72376953 11.54509766 9.23046875 11.52734375 C7.95816406 11.51832031 6.68585938 11.50929688 5.375 11.5 C4.11042969 11.48839844 2.84585937 11.47679687 1.54296875 11.46484375 C-1.80855237 11.40090884 -1.80855237 11.40090884 -4.8125 12.5625 C-7.44093884 11.55750868 -8.53653685 11.11442629 -9.8125 8.5625 C-10.1425 9.5525 -10.4725 10.5425 -10.8125 11.5625 C-11.4725 11.5625 -12.1325 11.5625 -12.8125 11.5625 C-12.8125 7.9325 -12.8125 4.3025 -12.8125 0.5625 C-8.2619504 -0.34760992 -4.54289281 -0.37821213 0 0 Z M-2.8125 3.5625 C-2.8125 4.2225 -2.8125 4.8825 -2.8125 5.5625 C-2.1525 5.2325 -1.4925 4.9025 -0.8125 4.5625 C-1.4725 4.2325 -2.1325 3.9025 -2.8125 3.5625 Z " fill="#0A0D09" transform="translate(260.8125,341.4375)"/>
<path d="M0 0 C2.31 0 4.62 0 7 0 C7 6.27 7 12.54 7 19 C8.65 19 10.3 19 12 19 C11.525625 19.61875 11.05125 20.2375 10.5625 20.875 C8.97582559 22.90705546 8.97582559 22.90705546 8 25 C8.66 25.33 9.32 25.66 10 26 C6.7 26 3.4 26 0 26 C-2.67655133 17.970346 -0.80911035 8.27893271 0 0 Z " fill="#252C26" transform="translate(308,307)"/>
<path d="M0 0 C0 0.66 0 1.32 0 2 C-3.18564812 1.74170421 -5.57600494 1.27106693 -8.28515625 -0.4609375 C-11.27081098 -2.30726999 -13.53183527 -3.36865933 -17 -4 C-21.96319114 -2.4517479 -26.16820919 0.05107346 -30.63427734 2.67382812 C-35.02804156 5.13687531 -39.62099128 7.19292829 -44.1875 9.3125 C-50.68231078 12.31530737 -50.68231078 12.31530737 -56.92578125 15.79296875 C-59 17 -59 17 -62 17 C-62.66 18.98 -63.32 20.96 -64 23 C-64.99 22.34 -65.98 21.68 -67 21 C-65.516481 16.549443 -63.79046614 14.57389088 -59.7109375 12.5078125 C-57.94098594 11.69435161 -56.16167121 10.9010497 -54.375 10.125 C-52.4764944 9.26447314 -50.57805791 8.4037938 -48.6796875 7.54296875 C-47.72803711 7.11935059 -46.77638672 6.69573242 -45.79589844 6.25927734 C-43.18007932 5.08110803 -40.59098419 3.86113746 -38.0078125 2.61328125 C-37.2442041 2.24509277 -36.4805957 1.8769043 -35.69384766 1.49755859 C-34.26801477 0.80860173 -32.84315229 0.11763166 -31.41943359 -0.57568359 C-27.96752499 -2.21825637 -24.79628527 -3.46705995 -21 -4 C-21 -4.66 -21 -5.32 -21 -6 C-13.84400784 -8.36921362 -6.22675175 -3.28319638 0 0 Z " fill="#5596AD" transform="translate(265,155)"/>
<path d="M0 0 C5.28 0 10.56 0 16 0 C16 5.94 16 11.88 16 18 C14 16 14 16 13.8046875 12.7421875 C13.82789063 11.46601563 13.85109375 10.18984375 13.875 8.875 C13.89304687 7.59367188 13.91109375 6.31234375 13.9296875 4.9921875 C13.95289063 4.00476563 13.97609375 3.01734375 14 2 C10.04 2 6.08 2 2 2 C2.33 18.17 2.66 34.34 3 51 C1.02 51.495 1.02 51.495 -1 52 C-0.67 34.84 -0.34 17.68 0 0 Z " fill="#86A966" transform="translate(249,223)"/>
<path d="M0 0 C4.12477709 3.71229938 5.66979393 6.64138524 6.4375 12.125 C5.93050872 16.61549416 4.51249405 19.7517778 2.5546875 23.7890625 C0.79417311 27.42509976 -0.82879921 31.10751923 -2.4375 34.8125 C-2.73092285 35.48466553 -3.0243457 36.15683105 -3.32666016 36.84936523 C-6.25041972 43.55224807 -9.1307768 50.27361595 -12 57 C-12.99 57 -13.98 57 -15 57 C-13.53420794 51.21438688 -11.32050971 46.03046519 -8.8125 40.625 C-8.01053613 38.8507945 -7.20977512 37.07604485 -6.41015625 35.30078125 C-4.88526964 31.92910797 -3.32734676 28.57599341 -1.74609375 25.23046875 C2.51291173 16.77288113 2.51291173 16.77288113 1.9375 7.6875 C1.42509766 6.73423828 1.42509766 6.73423828 0.90234375 5.76171875 C0 4 0 4 0 0 Z " fill="#6CAB8F" transform="translate(312,210)"/>
<path d="M0 0 C1 2 1 2 1 5 C1.66 5.66 2.32 6.32 3 7 C3.15108782 9.966987 3.18274221 12.84017871 3.125 15.8046875 C3.11742676 16.68021271 3.10985352 17.55573792 3.10205078 18.45779419 C3.0692902 22.21151288 3.01313013 25.96480031 2.95898438 29.71826172 C2.92282563 32.4553832 2.89862545 35.19243378 2.875 37.9296875 C2.85840332 38.77771942 2.84180664 39.62575134 2.82470703 40.4994812 C2.81810059 41.29355377 2.81149414 42.08762634 2.8046875 42.90576172 C2.78897705 43.94928299 2.78897705 43.94928299 2.77294922 45.0138855 C3.04022063 47.35182781 3.84763215 48.96530601 5 51 C4.01 51.99 3.02 52.98 2 54 C1.01 53.67 0.02 53.34 -1 53 C-0.67 38.15 -0.34 23.3 0 8 C-2.31 8 -4.62 8 -7 8 C-7 5 -7 5 -5.1875 2.875 C-3 1 -3 1 0 0 Z " fill="#10375E" transform="translate(202,209)"/>
<path d="M0 0 C2.875 1.5 2.875 1.5 5 4 C5.70435841 6.73395412 5.85763535 9.15270693 6 12 C2.04 12 -1.92 12 -6 12 C-5.67 11.01 -5.34 10.02 -5 9 C-3.35 9 -1.7 9 0 9 C-0.33 7.68 -0.66 6.36 -1 5 C-3.91652174 4.83318891 -3.91652174 4.83318891 -7 5 C-7.66 5.66 -8.32 6.32 -9 7 C-10.32 7 -11.64 7 -13 7 C-13 5.68 -13 4.36 -13 3 C-8.47405537 0.35066656 -5.24696826 -0.66779596 0 0 Z " fill="#0C100C" transform="translate(248,312)"/>
<path d="M0 0 C1.27603607 3.82810821 0.86283987 7.23475107 0.5625 11.1875 C0.51029297 11.93708984 0.45808594 12.68667969 0.40429688 13.45898438 C0.27486216 15.30637082 0.13813482 17.15324371 0 19 C-2.31 18.34 -4.62 17.68 -7 17 C-7.05423638 15.08364783 -7.09289963 13.16685075 -7.125 11.25 C-7.14820313 10.18265625 -7.17140625 9.1153125 -7.1953125 8.015625 C-7.00252781 5.03902932 -6.7082936 3.42102537 -5 1 C-2 0 -2 0 0 0 Z " fill="#171917" transform="translate(156,321)"/>
<path d="M0 0 C0 2 0 4 0 6 C1.32 6.33 2.64 6.66 4 7 C3.67 8.32 3.34 9.64 3 11 C-0.33333333 11 -3.66666667 11 -7 11 C-7 10.01 -7 9.02 -7 8 C-8.65 7.67 -10.3 7.34 -12 7 C-11.40138258 4.64828869 -10.73075648 2.3140622 -10 0 C-6.7169902 -1.6415049 -3.57454967 -0.51888624 0 0 Z " fill="#1D201C" transform="translate(214,342)"/>
<path d="M0 0 C1.65322266 0.01740234 1.65322266 0.01740234 3.33984375 0.03515625 C4.99693359 0.04869141 4.99693359 0.04869141 6.6875 0.0625 C7.54214844 0.07410156 8.39679688 0.08570313 9.27734375 0.09765625 C9.60734375 0.75765625 9.93734375 1.41765625 10.27734375 2.09765625 C9.94734375 2.75765625 9.61734375 3.41765625 9.27734375 4.09765625 C8.61734375 4.09765625 7.95734375 4.09765625 7.27734375 4.09765625 C7.27734375 5.41765625 7.27734375 6.73765625 7.27734375 8.09765625 C4.30734375 8.09765625 1.33734375 8.09765625 -1.72265625 8.09765625 C-1.72265625 9.08765625 -1.72265625 10.07765625 -1.72265625 11.09765625 C-0.07265625 11.09765625 1.57734375 11.09765625 3.27734375 11.09765625 C3.27734375 11.42765625 3.27734375 11.75765625 3.27734375 12.09765625 C0.96734375 12.42765625 -1.34265625 12.75765625 -3.72265625 13.09765625 C-3.74952178 11.11856227 -3.76899 9.13936654 -3.78515625 7.16015625 C-3.79675781 6.05800781 -3.80835938 4.95585937 -3.8203125 3.8203125 C-3.68888959 0.15624171 -3.66407079 0.13142291 0 0 Z " fill="#252B24" transform="translate(184.72265625,339.90234375)"/>
<path d="M0 0 C0.66 0 1.32 0 2 0 C1.42892047 4.14308865 0.48488552 7.67202484 -1.14453125 11.51953125 C-1.57443359 12.54240234 -2.00433594 13.56527344 -2.44726562 14.61914062 C-2.89779297 15.67294922 -3.34832031 16.72675781 -3.8125 17.8125 C-4.25142578 18.85470703 -4.69035156 19.89691406 -5.14257812 20.97070312 C-7.69437172 27.0108327 -10.31085209 33.01979761 -13 39 C-15.09912109 35.38232422 -15.09912109 35.38232422 -14.20703125 31.94140625 C-13.51673828 30.26884766 -13.51673828 30.26884766 -12.8125 28.5625 C-12.36519531 27.45003906 -11.91789063 26.33757812 -11.45703125 25.19140625 C-10 22 -10 22 -8.51953125 19.60546875 C-6.49832949 16.13980918 -5.22379548 12.51849391 -3.875 8.75 C-1.12190083 1.12190083 -1.12190083 1.12190083 0 0 Z " fill="#5089A1" transform="translate(198,177)"/>
<path d="M0 0 C1.32 0.66 2.64 1.32 4 2 C4 1.34 4 0.68 4 0 C4.66 0 5.32 0 6 0 C6.37125 0.94875 6.7425 1.8975 7.125 2.875 C8.73995905 6.25553808 8.73995905 6.25553808 12.1875 7.375 C13.115625 7.58125 14.04375 7.7875 15 8 C15 8.66 15 9.32 15 10 C13.53626953 9.98259766 13.53626953 9.98259766 12.04296875 9.96484375 C10.77066406 9.95582031 9.49835938 9.94679688 8.1875 9.9375 C6.92292969 9.92589844 5.65835937 9.91429687 4.35546875 9.90234375 C1.00394763 9.83840884 1.00394763 9.83840884 -2 11 C-4.125 10.25 -4.125 10.25 -6 9 C-6.33 8.01 -6.66 7.02 -7 6 C-6.34 6 -5.68 6 -5 6 C-4.34 6.66 -3.68 7.32 -3 8 C-2.01 7.67 -1.02 7.34 0 7 C-0.33 6.01 -0.66 5.02 -1 4 C-0.34 3.67 0.32 3.34 1 3 C0.67 2.01 0.34 1.02 0 0 Z " fill="#020602" transform="translate(258,343)"/>
<path d="M0 0 C0.33 0.99 0.66 1.98 1 3 C0.67 3.66 0.34 4.32 0 5 C-1.65 5 -3.3 5 -5 5 C-5.226875 6.258125 -5.45375 7.51625 -5.6875 8.8125 C-6.50247194 12.17351568 -6.742203 12.80358323 -9.625 15 C-10.800625 15.495 -10.800625 15.495 -12 16 C-12.98726979 11.31046852 -13.58722142 8.3306392 -11.1875 4.0625 C-7.79563841 -0.68610623 -5.62925514 -0.10424547 0 0 Z " fill="#111412" transform="translate(201,312)"/>
<path d="M0 0 C0.5775 0.37125 1.155 0.7425 1.75 1.125 C1.20061768 1.38192627 0.65123535 1.63885254 0.08520508 1.90356445 C-2.42366801 3.07878039 -4.9305909 4.25810075 -7.4375 5.4375 C-8.30181641 5.84162109 -9.16613281 6.24574219 -10.05664062 6.66210938 C-13.53047402 8.29920327 -16.89848889 9.90958799 -20.17578125 11.91796875 C-22.25 13.125 -22.25 13.125 -25.25 13.125 C-25.91 15.105 -26.57 17.085 -27.25 19.125 C-28.24 18.465 -29.23 17.805 -30.25 17.125 C-29.19394548 13.79623828 -28.06261591 11.65383649 -25.09814453 9.72460938 C-22.36833704 8.35379696 -19.61279668 7.09530414 -16.8125 5.875 C-15.85794922 5.441875 -14.90339844 5.00875 -13.91992188 4.5625 C-12.14532865 3.75778593 -10.36711828 2.96096619 -8.58422852 2.17480469 C-6.24714306 1.18326366 -6.24714306 1.18326366 -4.19506836 -0.13574219 C-2.25 -0.875 -2.25 -0.875 0 0 Z " fill="#6B9DB8" transform="translate(228.25,158.875)"/>
<path d="M0 0 C1.32 0 2.64 0 4 0 C4 0.66 4 1.32 4 2 C5.32 2 6.64 2 8 2 C9.11544282 5.34632847 8.67217232 6.63913839 8 10 C8.33 10.99 8.66 11.98 9 13 C7.52093108 13.02689216 6.04172517 13.04634621 4.5625 13.0625 C3.32693359 13.07990234 3.32693359 13.07990234 2.06640625 13.09765625 C0 13 0 13 -1 12 C-1.04092937 9.66702567 -1.04241723 7.33294775 -1 5 C-0.34 5 0.32 5 1 5 C0.67 3.35 0.34 1.7 0 0 Z M2 4 C2 4.66 2 5.32 2 6 C2.66 5.67 3.32 5.34 4 5 C3.34 4.67 2.68 4.34 2 4 Z " fill="#131C15" transform="translate(237,340)"/>
<path d="M0 0 C2.1875 2 2.1875 2 3 5 C2.62645704 8.09729372 1.90322677 11.01740224 1 14 C0.67 14 0.34 14 0 14 C0 12.02 0 10.04 0 8 C-1.4540625 8.0309375 -1.4540625 8.0309375 -2.9375 8.0625 C-6 8 -6 8 -7 7 C-7.04080783 5.00041636 -7.04254356 2.99954746 -7 1 C-8.98 1.66 -10.96 2.32 -13 3 C-12.67 2.01 -12.34 1.02 -12 0 C-7.82562681 -1.39145773 -4.24089948 -1.11726851 0 0 Z " fill="#B5B78A" transform="translate(255,201)"/>
<path d="M0 0 C-0.66 1.65 -1.32 3.3 -2 5 C-2.33 3.68 -2.66 2.36 -3 1 C-5.29240007 1.05985379 -7.58406206 1.14859027 -9.875 1.25 C-11.15117187 1.29640625 -12.42734375 1.3428125 -13.7421875 1.390625 C-14.81726563 1.59171875 -15.89234375 1.7928125 -17 2 C-18.33760911 3.84705792 -18.33760911 3.84705792 -19 6 C-19.99 6.804375 -20.98 7.60875 -22 8.4375 C-25.04894711 11.04180899 -25.74693169 12.33718495 -27 16 C-29.06619192 18.6296988 -30.72085432 19.43463006 -34 20 C-32.5 17 -32.5 17 -31 14 C-30.34 14 -29.68 14 -29 14 C-29 13.34 -29 12.68 -29 12 C-28.34 12 -27.68 12 -27 12 C-26.7215625 11.42765625 -26.443125 10.8553125 -26.15625 10.265625 C-19.98312533 -1.83036252 -12.43600689 -0.94750529 0 0 Z " fill="#83AB55" transform="translate(299,223)"/>
<path d="M0 0 C0.04125 0.61875 0.0825 1.2375 0.125 1.875 C0.85015006 4.34201816 0.85015006 4.34201816 3.9375 5.25 C6.79826584 6.07928958 6.79826584 6.07928958 9 6 C9 7.65 9 9.3 9 11 C10.65 11 12.3 11 14 11 C13.67 11.66 13.34 12.32 13 13 C11.3973218 13.10824843 9.79254252 13.18570645 8.1875 13.25 C7.29417969 13.29640625 6.40085938 13.3428125 5.48046875 13.390625 C3 13 3 13 1.22265625 11.2109375 C-0.4550459 8.17713745 -0.74577918 5.43198111 -1 2 C-0.67 1.34 -0.34 0.68 0 0 Z " fill="#B7AD76" transform="translate(241,204)"/>
<path d="M0 0 C0.66 0.66 1.32 1.32 2 2 C1.34 2 0.68 2 0 2 C0 1.34 0 0.68 0 0 Z M-1 2 C0 4 0 4 -0.55859375 5.9453125 C-0.84863281 6.66460937 -1.13867188 7.38390625 -1.4375 8.125 C-1.72496094 8.84945313 -2.01242187 9.57390625 -2.30859375 10.3203125 C-2.53675781 10.87460937 -2.76492188 11.42890625 -3 12 C-10.75 13.125 -10.75 13.125 -13 12 C-13 10.68 -13 9.36 -13 8 C-9.14243493 5.84694043 -6.44870215 4.60746746 -2 5 C-1.67 4.01 -1.34 3.02 -1 2 Z " fill="#030604" transform="translate(329,320)"/>
<path d="M0 0 C0.103125 0.61875 0.20625 1.2375 0.3125 1.875 C0.87525373 4.36526484 0.87525373 4.36526484 4 6 C4.36076355 7.94888306 4.36076355 7.94888306 4.34057617 10.35791016 C4.34034958 11.25869293 4.34012299 12.15947571 4.33988953 13.08755493 C4.32440567 14.06155243 4.30892181 15.03554993 4.29296875 16.0390625 C4.28872391 17.03505463 4.28447906 18.03104675 4.28010559 19.05722046 C4.2632768 22.24675225 4.22561676 25.43565833 4.1875 28.625 C4.1724586 30.78384506 4.15876925 32.9427 4.14648438 35.1015625 C4.11335967 40.40125612 4.06311896 45.70058337 4 51 C3.67 51 3.34 51 3 51 C3 36.48 3 21.96 3 7 C0.69 7 -1.62 7 -4 7 C-4 4 -4 4 -2 1.8125 C-1.34 1.214375 -0.68 0.61625 0 0 Z " fill="#668BA4" transform="translate(199,210)"/>
<path d="M0 0 C0.33 0.66 0.66 1.32 1 2 C2.32 2.33 3.64 2.66 5 3 C2.03 6.3 -0.94 9.6 -4 13 C-2.74646003 16.13384992 -1.53924548 19.03145514 0 22 C-1.65 21.67 -3.3 21.34 -5 21 C-4.67 20.01 -4.34 19.02 -4 18 C-4.99 18 -5.98 18 -7 18 C-7 15.69 -7 13.38 -7 11 C-6.01 10.67 -5.02 10.34 -4 10 C-4.33 9.01 -4.66 8.02 -5 7 C-3.68 7.33 -2.36 7.66 -1 8 C-1.020625 6.865625 -1.04125 5.73125 -1.0625 4.5625 C-1 1 -1 1 0 0 Z " fill="#89AD60" transform="translate(285,232)"/>
<path d="M0 0 C-0.33 0.99 -0.66 1.98 -1 3 C-0.67 3.99 -0.34 4.98 0 6 C-1.40445835 8.2636564 -3.1967913 10.0208685 -5 12 C-8 11 -8 11 -10 9 C-10.0625 6.0625 -10.0625 6.0625 -9 3 C-3.5 0 -3.5 0 0 0 Z " fill="#AF9340" transform="translate(251,165)"/>
<path d="M0 0 C0.33 0 0.66 0 1 0 C1.495 7.92 1.495 7.92 2 16 C-0.82617956 16.94205985 -2.38050418 17.09846177 -5.2878418 17.02172852 C-6.57884041 16.99158409 -6.57884041 16.99158409 -7.8959198 16.96083069 C-8.82100845 16.93379562 -9.74609711 16.90676056 -10.69921875 16.87890625 C-11.64940384 16.85529526 -12.59958893 16.83168427 -13.5785675 16.80735779 C-16.61503146 16.73075165 -19.65123843 16.64671397 -22.6875 16.5625 C-24.74543011 16.50927627 -26.80337278 16.45653589 -28.86132812 16.40429688 C-33.90771499 16.27514055 -38.95388388 16.13931868 -44 16 C-44 15.67 -44 15.34 -44 15 C-29.48 15 -14.96 15 0 15 C0 10.05 0 5.1 0 0 Z " fill="#4B707F" transform="translate(246,259)"/>
<path d="M0 0 C1.12588014 0.95729916 2.2506715 1.91587895 3.375 2.875 C4.00148438 3.40867188 4.62796875 3.94234375 5.2734375 4.4921875 C6.55836651 5.61432007 7.79371975 6.79371975 9 8 C9 8.99 9 9.98 9 11 C1.74 11 -5.52 11 -13 11 C-13.33 10.34 -13.66 9.68 -14 9 C-4.1 8.505 -4.1 8.505 6 8 C4.02 6.35 2.04 4.7 0 3 C0 2.01 0 1.02 0 0 Z " fill="#B2BA8B" transform="translate(294,206)"/>
<path d="M0 0 C1.65 0 3.3 0 5 0 C5 2.97 5 5.94 5 9 C5.66 9.33 6.32 9.66 7 10 C7 10.66 7 11.32 7 12 C5.42466914 12.86883706 3.83935491 13.71959068 2.25 14.5625 C1.36828125 15.03816406 0.4865625 15.51382812 -0.421875 16.00390625 C-3.20701188 17.07998186 -4.26980214 17.06528748 -7 16 C-4.3401439 12.55783328 -1.09711714 12.00495326 3 11 C2.5359375 9.1128125 2.5359375 9.1128125 2.0625 7.1875 C1.88847656 6.47980469 1.71445312 5.77210938 1.53515625 5.04296875 C1.08989295 3.34316798 0.55566015 1.66698046 0 0 Z " fill="#5D986B" transform="translate(278,268)"/>
<path d="M0 0 C0.99 0 1.98 0 3 0 C3.0825 0.94875 3.165 1.8975 3.25 2.875 C3.65074923 6.10461791 3.65074923 6.10461791 6.0625 7.375 C6.701875 7.58125 7.34125 7.7875 8 8 C8 8.99 8 9.98 8 11 C2.25 12.125 2.25 12.125 0 11 C-0.44921875 8.75 -0.44921875 8.75 -0.6875 6 C-0.77386719 5.0925 -0.86023438 4.185 -0.94921875 3.25 C-0.96597656 2.5075 -0.98273438 1.765 -1 1 C-0.67 0.67 -0.34 0.34 0 0 Z " fill="#353F37" transform="translate(280,342)"/>
<path d="M0 0 C2.31 0 4.62 0 7 0 C7 2.64 7 5.28 7 8 C6.34 8 5.68 8 5 8 C4.67 9.65 4.34 11.3 4 13 C3.67 13 3.34 13 3 13 C2.87882812 12.43410156 2.75765625 11.86820312 2.6328125 11.28515625 C2.38144531 10.18494141 2.38144531 10.18494141 2.125 9.0625 C1.96257812 8.33160156 1.80015625 7.60070312 1.6328125 6.84765625 C1.17038477 4.79299706 1.17038477 4.79299706 -1 4 C-0.67 2.68 -0.34 1.36 0 0 Z " fill="#1B2620" transform="translate(299,312)"/>
<path d="M0 0 C0.66 0.33 1.32 0.66 2 1 C1.67 1.99 1.34 2.98 1 4 C0.34 4 -0.32 4 -1 4 C-0.67 6.97 -0.34 9.94 0 13 C0.99 12.01 1.98 11.02 3 10 C3.66 10 4.32 10 5 10 C5 10.66 5 11.32 5 12 C6.32 12.33 7.64 12.66 9 13 C7.35 13 5.7 13 4 13 C3.67 14.32 3.34 15.64 3 17 C2.01 17 1.02 17 0 17 C0 16.34 0 15.68 0 15 C-0.66 15 -1.32 15 -2 15 C-2.06058594 14.32453125 -2.12117187 13.6490625 -2.18359375 12.953125 C-2.26738281 12.06109375 -2.35117188 11.1690625 -2.4375 10.25 C-2.51871094 9.36828125 -2.59992188 8.4865625 -2.68359375 7.578125 C-2.96238465 5.30649548 -3.38790577 3.20148177 -4 1 C-3.01 1 -2.02 1 -1 1 C-0.67 0.67 -0.34 0.34 0 0 Z " fill="#454E47" transform="translate(190,314)"/>
<path d="M0 0 C5.00600922 0.54681024 8.97181067 2.24140333 13.375 4.5625 C14.01566406 4.89185547 14.65632812 5.22121094 15.31640625 5.56054688 C16.88138632 6.36639482 18.44124021 7.18218493 20 8 C20 8.66 20 9.32 20 10 C14.99399078 9.45318976 11.02818933 7.75859667 6.625 5.4375 C5.66400391 4.9434668 5.66400391 4.9434668 4.68359375 4.43945312 C3.11861368 3.63360518 1.55875979 2.81781507 0 2 C0 1.34 0 0.68 0 0 Z " fill="#53856F" transform="translate(211,277)"/>
<path d="M0 0 C1.32 0 2.64 0 4 0 C4.33 2.31 4.66 4.62 5 7 C1.04 7 -2.92 7 -7 7 C-6.67 6.01 -6.34 5.02 -6 4 C-2.4375 2.8125 -2.4375 2.8125 1 2 C0.67 1.67 0.34 1.34 0 1 C0 0.67 0 0.34 0 0 Z " fill="#030703" transform="translate(249,317)"/>
<path d="M0 0 C1.26145304 2.96040423 0.97501966 4.06905828 -0.14453125 7.1640625 C-0.69496094 8.30617187 -1.24539063 9.44828125 -1.8125 10.625 C-2.62654297 12.34589844 -2.62654297 12.34589844 -3.45703125 14.1015625 C-5 17 -5 17 -7 19 C-6.42697729 12.41023883 -4.79679264 4.79679264 0 0 Z " fill="#62A08C" transform="translate(312,233)"/>
<path d="M0 0 C1.32 0 2.64 0 4 0 C4.33 0.99 4.66 1.98 5 3 C5.66 3.33 6.32 3.66 7 4 C6.67 5.65 6.34 7.3 6 9 C5.67 8.34 5.34 7.68 5 7 C4.34 7 3.68 7 3 7 C2.67 8.32 2.34 9.64 2 11 C1.34 11 0.68 11 0 11 C0 7.37 0 3.74 0 0 Z " fill="#07160C" transform="translate(248,342)"/>
<path d="M0 0 C1.11058786 2.07309734 1.97398494 3.88618411 2.5 6.1875 C2.665 6.785625 2.83 7.38375 3 8 C3.66 8.33 4.32 8.66 5 9 C5 9.66 5 10.32 5 11 C5.99 11 6.98 11 8 11 C7.34 12.32 6.68 13.64 6 15 C4.46452525 13.59921602 2.94694852 12.17879097 1.4375 10.75 C0.59058594 9.96109375 -0.25632813 9.1721875 -1.12890625 8.359375 C-3 6 -3 6 -2.90234375 3.828125 C-2 2 -2 2 0 0 Z " fill="#B1AC7B" transform="translate(241,168)"/>
<path d="M0 0 C0.66 0.33 1.32 0.66 2 1 C1.25 5.75 1.25 5.75 -1 8 C-3.5 7.875 -3.5 7.875 -6 7 C-7.3125 4.9375 -7.3125 4.9375 -8 3 C-3.25 2 -3.25 2 -1 2 C-0.67 1.34 -0.34 0.68 0 0 Z " fill="#0D2517" transform="translate(303,346)"/>
<path d="M0 0 C0.99 1.32 1.98 2.64 3 4 C2.01 4.495 2.01 4.495 1 5 C0.67 5.99 0.34 6.98 0 8 C-5.75 9.125 -5.75 9.125 -8 8 C-5.36 5.36 -2.72 2.72 0 0 Z " fill="#355E83" transform="translate(208,201)"/>
<path d="M0 0 C2.97 0.495 2.97 0.495 6 1 C6 1.99 6 2.98 6 4 C6.66 4.33 7.32 4.66 8 5 C8.33 3.35 8.66 1.7 9 0 C9.33 0 9.66 0 10 0 C10 1.98 10 3.96 10 6 C10.66 6.33 11.32 6.66 12 7 C11.34 8.32 10.68 9.64 10 11 C8.33035479 9.35718838 6.6643536 7.71067239 5 6.0625 C4.071875 5.14597656 3.14375 4.22945312 2.1875 3.28515625 C0 1 0 1 0 0 Z " fill="#AF9D5B" transform="translate(252,187)"/>
<path d="M0 0 C0.66 0.33 1.32 0.66 2 1 C1.67 2.32 1.34 3.64 1 5 C2.65 5.33 4.3 5.66 6 6 C5.67 7.32 5.34 8.64 5 10 C1 10 1 10 -1 9 C-1.125 2.25 -1.125 2.25 0 0 Z " fill="#000500" transform="translate(212,343)"/>
<path d="M0 0 C1.98 0 3.96 0 6 0 C6.33 0.99 6.66 1.98 7 3 C6.67 3.66 6.34 4.32 6 5 C4.35 5 2.7 5 1 5 C0.67 7.31 0.34 9.62 0 12 C-0.33 12 -0.66 12 -1 12 C-1.14285714 3.42857143 -1.14285714 3.42857143 0 0 Z " fill="#222822" transform="translate(157,327)"/>
<path d="M0 0 C0.33 0 0.66 0 1 0 C1.00386719 0.94359375 1.00386719 0.94359375 1.0078125 1.90625 C1.32537817 8.93503694 3.28287269 12.83568326 8 18 C4.62765029 17.71897086 3.21360261 17.19628348 0.6875 14.875 C-2.16358283 10.01759963 -1.28465102 5.29918547 0 0 Z " fill="#AAA167" transform="translate(282,184)"/>
<path d="M0 0 C1.67542976 0.28604898 3.34385343 0.61781233 5 1 C4.360625 1.2475 3.72125 1.495 3.0625 1.75 C0.81258459 2.81562433 0.81258459 2.81562433 0.25 5.125 C0.1675 5.74375 0.085 6.3625 0 7 C0.99 7 1.98 7 3 7 C3.33 6.01 3.66 5.02 4 4 C4.66 5.32 5.32 6.64 6 8 C4.35 8 2.7 8 1 8 C1 8.99 1 9.98 1 11 C2.65 11 4.3 11 6 11 C6 11.33 6 11.66 6 12 C3.69 12.33 1.38 12.66 -1 13 C-1.02686553 11.02090602 -1.04633375 9.04171029 -1.0625 7.0625 C-1.07410156 5.96035156 -1.08570313 4.85820312 -1.09765625 3.72265625 C-1 1 -1 1 0 0 Z " fill="#030A04" transform="translate(182,340)"/>
<path d="M0 0 C2.64 0 5.28 0 8 0 C8.22786458 2.01822917 8.45572917 4.03645833 8.68359375 6.0546875 C8.91292961 8.07404316 8.91292961 8.07404316 10 10 C9.01 10.33 8.02 10.66 7 11 C7 7.7 7 4.4 7 1 C5.68 1.99 4.36 2.98 3 4 C2.01 4.495 2.01 4.495 1 5 C1 6.98 1 8.96 1 11 C0.67 11 0.34 11 0 11 C0 7.37 0 3.74 0 0 Z " fill="#68716C" transform="translate(328,307)"/>
<path d="M0 0 C2 1 2 1 3 3 C1.4470724 3.87144869 -0.11785436 4.72153657 -1.6875 5.5625 C-2.55761719 6.03816406 -3.42773438 6.51382812 -4.32421875 7.00390625 C-7.38328753 8.14268368 -8.91863039 7.92718689 -12 7 C-8.44008172 4.03340143 -4.34777457 1.618652 0 0 Z " fill="#7FAE8C" transform="translate(270,283)"/>
<path d="M0 0 C0.66 0 1.32 0 2 0 C1.91621094 0.67546875 1.83242187 1.3509375 1.74609375 2.046875 C1.64425781 2.93890625 1.54242188 3.8309375 1.4375 4.75 C1.33308594 5.63171875 1.22867188 6.5134375 1.12109375 7.421875 C1.00543324 9.88432451 1.26361305 11.66538064 2 14 C1.01 14 0.02 14 -1 14 C-2.6491828 9.74684436 -3.49974625 7.3351775 -1.625 3.0625 C-1.08875 2.051875 -0.5525 1.04125 0 0 Z " fill="#42907B" transform="translate(182,214)"/>
<path d="M0 0 C1.32 0 2.64 0 4 0 C4 0.66 4 1.32 4 2 C5.32 2 6.64 2 8 2 C8.33 2.99 8.66 3.98 9 5 C8.05125 4.95875 7.1025 4.9175 6.125 4.875 C2.89755144 4.65026182 2.89755144 4.65026182 1 7 C0.35232207 9.57061311 0.35232207 9.57061311 0 12 C-0.33 12 -0.66 12 -1 12 C-1 9.69 -1 7.38 -1 5 C-0.34 5 0.32 5 1 5 C0.67 3.35 0.34 1.7 0 0 Z " fill="#4F5E56" transform="translate(237,340)"/>
<path d="M0 0 C0.33 0 0.66 0 1 0 C1.33 9.57 1.66 19.14 2 29 C0.68 29.33 -0.64 29.66 -2 30 C-1.84152588 29.46536133 -1.68305176 28.93072266 -1.51977539 28.37988281 C-0.89799663 25.53295968 -0.7835446 22.83472843 -0.68359375 19.921875 C-0.64169922 18.76171875 -0.59980469 17.6015625 -0.55664062 16.40625 C-0.51732422 15.1996875 -0.47800781 13.993125 -0.4375 12.75 C-0.39431641 11.52796875 -0.35113281 10.3059375 -0.30664062 9.046875 C-0.20062645 6.0313608 -0.09856064 3.01576552 0 0 Z " fill="#70A344" transform="translate(250,245)"/>
<path d="M0 0 C-0.33 0.66 -0.66 1.32 -1 2 C-1.53534436 3.53668796 -2.05454272 5.07904306 -2.5625 6.625 C-2.83191406 7.44226563 -3.10132813 8.25953125 -3.37890625 9.1015625 C-3.58386719 9.72804688 -3.78882813 10.35453125 -4 11 C-4.99 11 -5.98 11 -7 11 C-7.33 9.02 -7.66 7.04 -8 5 C-7.34 5 -6.68 5 -6 5 C-6 4.34 -6 3.68 -6 3 C-3.89994105 0.39992701 -3.48266577 0 0 0 Z " fill="#3B483B" transform="translate(214,342)"/>
<path d="M0 0 C2.97 0.495 2.97 0.495 6 1 C6 2.65 6 4.3 6 6 C4.02 6 2.04 6 0 6 C0 4.02 0 2.04 0 0 Z " fill="#AC934D" transform="translate(250,202)"/>
<path d="M0 0 C0.66 0.33 1.32 0.66 2 1 C2 1.66 2 2.32 2 3 C2.66 3 3.32 3 4 3 C4.66 4.65 5.32 6.3 6 8 C0.72 8 -4.56 8 -10 8 C-10 7.67 -10 7.34 -10 7 C-6.04 7 -2.08 7 2 7 C1.34 4.69 0.68 2.38 0 0 Z " fill="#98B87C" transform="translate(295,267)"/>
<path d="M0 0 C3.875 1.75 3.875 1.75 5 4 C3.54494642 4.52992692 2.08581873 5.0486789 0.625 5.5625 C-0.59316406 5.99755859 -0.59316406 5.99755859 -1.8359375 6.44140625 C-4 7 -4 7 -6 6 C-4.02 4.02 -2.04 2.04 0 0 Z " fill="#ADA475" transform="translate(248,161)"/>
<path d="M0 0 C0.33 1.32 0.66 2.64 1 4 C4.96 3.34 8.92 2.68 13 2 C13.33 2.99 13.66 3.98 14 5 C13.67 5.33 13.34 5.66 13 6 C10.80949979 5.90982004 8.621534 5.75333792 6.4375 5.5625 C5.23996094 5.46066406 4.04242188 5.35882813 2.80859375 5.25390625 C1.88175781 5.17011719 0.95492188 5.08632813 0 5 C0 3.35 0 1.7 0 0 Z " fill="#2A3F2B" transform="translate(307,348)"/>
<path d="M0 0 C3.83868076 0.42652008 7.5032393 2.45335584 11 4 C9.296875 5.1171875 9.296875 5.1171875 7 6 C4.640625 5.3203125 4.640625 5.3203125 2.25 4.125 C1.45078125 3.73570312 0.6515625 3.34640625 -0.171875 2.9453125 C-1.07679688 2.47738281 -1.07679688 2.47738281 -2 2 C-1.34 1.34 -0.68 0.68 0 0 Z " fill="#72AFC0" transform="translate(265,156)"/>
<path d="M0 0 C2.33944736 0.28730055 4.6739143 0.61936779 7 1 C6.67 2.65 6.34 4.3 6 6 C5.67 5.34 5.34 4.68 5 4 C4.01 4 3.02 4 2 4 C2.20625 4.78375 2.4125 5.5675 2.625 6.375 C2.810625 7.674375 2.810625 7.674375 3 9 C2.34 9.66 1.68 10.32 1 11 C1 8.03 1 5.06 1 2 C0.34 1.67 -0.32 1.34 -1 1 C-0.67 0.67 -0.34 0.34 0 0 Z " fill="#666D67" transform="translate(226,341)"/>
<path d="M0 0 C3.96 0 7.92 0 12 0 C12 0.66 12 1.32 12 2 C9.36 2 6.72 2 4 2 C3.67 2.66 3.34 3.32 3 4 C2.01 3.34 1.02 2.68 0 2 C0 1.34 0 0.68 0 0 Z " fill="#000100" transform="translate(303,340)"/>
<path d="M0 0 C0.2475 0.639375 0.495 1.27875 0.75 1.9375 C1.81562433 4.18741541 1.81562433 4.18741541 4.125 4.75 C4.74375 4.8325 5.3625 4.915 6 5 C6 5.66 6 6.32 6 7 C4.02 7.33 2.04 7.66 0 8 C-0.433125 7.0409375 -0.433125 7.0409375 -0.875 6.0625 C-1.82823451 3.84793921 -1.82823451 3.84793921 -4 3 C-3.67 2.34 -3.34 1.68 -3 1 C-2.01 1.33 -1.02 1.66 0 2 C0 1.34 0 0.68 0 0 Z " fill="#454D48" transform="translate(291,331)"/>
<path d="M0 0 C0 0.66 0 1.32 0 2 C-1.24176695 2.70226141 -2.49385599 3.38629109 -3.75 4.0625 C-4.79414063 4.63677734 -4.79414063 4.63677734 -5.859375 5.22265625 C-8.36140628 6.1312406 -9.5332355 5.88336837 -12 5 C-4.74193548 0 -4.74193548 0 0 0 Z " fill="#558CA9" transform="translate(240,153)"/>
<path d="M0 0 C0.66 0 1.32 0 2 0 C2.33 1.65 2.66 3.3 3 5 C2.21625 5.12375 1.4325 5.2475 0.625 5.375 C-2.14057822 5.79117993 -2.14057822 5.79117993 -4 8 C-4.66 8 -5.32 8 -6 8 C-6 7.34 -6 6.68 -6 6 C-5.34 6 -4.68 6 -4 6 C-4 5.34 -4 4.68 -4 4 C-3.34 4 -2.68 4 -2 4 C-2 3.34 -2 2.68 -2 2 C-1.34 2 -0.68 2 0 2 C0 1.34 0 0.68 0 0 Z " fill="#345A7F" transform="translate(227,182)"/>
<path d="M0 0 C2.31 0.33 4.62 0.66 7 1 C7.33 1.99 7.66 2.98 8 4 C5.36 4 2.72 4 0 4 C0 2.68 0 1.36 0 0 Z " fill="#1F2821" transform="translate(265,349)"/>
<path d="M0 0 C5.94 0 11.88 0 18 0 C17.34 1.65 16.68 3.3 16 5 C15.67 3.68 15.34 2.36 15 1 C7.08 1.495 7.08 1.495 -1 2 C-0.67 1.34 -0.34 0.68 0 0 Z " fill="#92B57F" transform="translate(281,223)"/>
<path d="M0 0 C1.32 0.66 2.64 1.32 4 2 C0.92000054 5.67230705 -1.2482602 6.56802365 -6 7 C-5.34 6.67 -4.68 6.34 -4 6 C-4 5.34 -4 4.68 -4 4 C-3.34 4 -2.68 4 -2 4 C-2 3.34 -2 2.68 -2 2 C-1.34 2 -0.68 2 0 2 C0 1.34 0 0.68 0 0 Z " fill="#3B6181" transform="translate(235,174)"/>
<path d="M0 0 C0 3.3 0 6.6 0 10 C-0.66 10 -1.32 10 -2 10 C-2.66 7.36 -3.32 4.72 -4 2 C-1 0 -1 0 0 0 Z " fill="#242C25" transform="translate(292,343)"/>
<path d="M0 0 C0.68707555 2.49064888 1 4.37886292 1 7 C-0.65 7 -2.3 7 -4 7 C-4 4 -4 4 -2 1.8125 C-1.34 1.214375 -0.68 0.61625 0 0 Z " fill="#456B86" transform="translate(199,210)"/>
<path d="M0 0 C3.12270126 2.51830747 3.94523098 3.7261549 4.75 7.75 C4.8325 8.8225 4.915 9.895 5 11 C1.87729874 8.48169253 1.05476902 7.2738451 0.25 3.25 C0.1675 2.1775 0.085 1.105 0 0 Z " fill="#659D89" transform="translate(312,210)"/>
<path d="M0 0 C3.63 0 7.26 0 11 0 C11 0.66 11 1.32 11 2 C10.01 2 9.02 2 8 2 C7.67 2.66 7.34 3.32 7 4 C7 3.01 7 2.02 7 1 C6.34 1 5.68 1 5 1 C5 1.66 5 2.32 5 3 C3.68 3 2.36 3 1 3 C0.67 2.01 0.34 1.02 0 0 Z " fill="#6A766D" transform="translate(257,342)"/>
<path d="M0 0 C0.33 0 0.66 0 1 0 C1 2.31 1 4.62 1 7 C-2.08809695 8.76462683 -3.23312136 9 -7 9 C-7 8.34 -7 7.68 -7 7 C-5.35 7 -3.7 7 -2 7 C-2 5.68 -2 4.36 -2 3 C-1.34 3 -0.68 3 0 3 C0 2.01 0 1.02 0 0 Z " fill="#607C76" transform="translate(328,325)"/>
<path d="M0 0 C0.81210938 0.29003906 1.62421875 0.58007812 2.4609375 0.87890625 C3.27820313 1.16636719 4.09546875 1.45382812 4.9375 1.75 C5.56398437 1.97816406 6.19046875 2.20632813 6.8359375 2.44140625 C5.8459375 3.10140625 4.8559375 3.76140625 3.8359375 4.44140625 C0.40410432 3.60095731 -1.64934384 2.95612491 -4.1640625 0.44140625 C-2.1640625 -0.55859375 -2.1640625 -0.55859375 0 0 Z " fill="#7BA78E" transform="translate(233.1640625,286.55859375)"/>
<path d="M0 0 C2.52588702 2.36292656 3.88820837 3.66462511 5 7 C3.02 7.33 1.04 7.66 -1 8 C-0.67 5.36 -0.34 2.72 0 0 Z " fill="#91B561" transform="translate(287,256)"/>
<path d="M0 0 C0.99 0.33 1.98 0.66 3 1 C0.36 3.64 -2.28 6.28 -5 9 C-5.33 8.01 -5.66 7.02 -6 6 C-4.02 4.02 -2.04 2.04 0 0 Z " fill="#4A6E8A" transform="translate(227,203)"/>
<path d="M0 0 C0.66 0.99 1.32 1.98 2 3 C0.875 4.9375 0.875 4.9375 -1 7 C-4.1875 7.75 -4.1875 7.75 -7 8 C-5.625 6 -5.625 6 -4 4 C-3.34 4 -2.68 4 -2 4 C-2 3.34 -2 2.68 -2 2 C-1.34 2 -0.68 2 0 2 C0 1.34 0 0.68 0 0 Z " fill="#3F628B" transform="translate(219,190)"/>
<path d="M0 0 C1.65 0.33 3.3 0.66 5 1 C4.01 1.33 3.02 1.66 2 2 C0.77479736 5.00847418 0.77479736 5.00847418 0 8 C-0.99 7.34 -1.98 6.68 -3 6 C-2.01 4.02 -1.02 2.04 0 0 Z " fill="#72A1BA" transform="translate(201,170)"/>
<path d="M0 0 C3.71888239 0.50712033 6.73454239 1.11608215 10 3 C10 3.66 10 4.32 10 5 C6.28111761 4.49287967 3.26545761 3.88391785 0 2 C0 1.34 0 0.68 0 0 Z " fill="#619AAC" transform="translate(274,161)"/>
<path d="M0 0 C3.375 0.25 3.375 0.25 7 1 C8.4375 3.0625 8.4375 3.0625 9 5 C5.51694958 4.35499066 2.93797836 2.95865224 0 1 C0 0.67 0 0.34 0 0 Z " fill="#669B75" transform="translate(237,290)"/>
<path d="M0 0 C1.1875 1.5 1.1875 1.5 2 4 C1.27101296 6.78824238 0.1843275 9.37665092 -1 12 C-2.1875 10.5 -2.1875 10.5 -3 8 C-2.27101296 5.21175762 -1.1843275 2.62334908 0 0 Z " fill="#63979E" transform="translate(186,204)"/>
<path d="M0 0 C3.0916909 2.52956528 3.90931332 5.22454612 5 9 C4.01 9.33 3.02 9.66 2 10 C-0.09350689 6.5980513 -0.17942163 3.94727588 0 0 Z " fill="#5FA89E" transform="translate(309,202)"/>
<path d="M0 0 C1.875 0.3125 1.875 0.3125 4 1 C4.66 1.99 5.32 2.98 6 4 C3.69 4.33 1.38 4.66 -1 5 C-1.33 4.01 -1.66 3.02 -2 2 C-1.34 2 -0.68 2 0 2 C0 1.34 0 0.68 0 0 Z " fill="#B1A15B" transform="translate(251,165)"/>
<path d="M0 0 C2.0625 1.6875 2.0625 1.6875 4 4 C3.75 6.75 3.75 6.75 3 9 C2.67 8.34 2.34 7.68 2 7 C1.34 7 0.68 7 0 7 C-0.38133299 5.0085944 -0.71325582 3.00720923 -1 1 C-0.67 0.67 -0.34 0.34 0 0 Z " fill="#484D44" transform="translate(251,342)"/>
<path d="M0 0 C0.66 0.66 1.32 1.32 2 2 C1.67 2.66 1.34 3.32 1 4 C0.34 4 -0.32 4 -1 4 C-1 5.32 -1 6.64 -1 8 C-2.32 7.34 -3.64 6.68 -5 6 C-4.34 5.67 -3.68 5.34 -3 5 C-3 4.01 -3 3.02 -3 2 C-2.01 1.34 -1.02 0.68 0 0 Z " fill="#010801" transform="translate(193,340)"/>
<path d="M0 0 C1.98 0 3.96 0 6 0 C6.33 0.66 6.66 1.32 7 2 C6.67 2.66 6.34 3.32 6 4 C4.35 4 2.7 4 1 4 C0.67 2.68 0.34 1.36 0 0 Z " fill="#010803" transform="translate(195,313)"/>
<path d="M0 0 C1.32 0 2.64 0 4 0 C4 1.65 4 3.3 4 5 C3.34 5 2.68 5 2 5 C1.67 5.66 1.34 6.32 1 7 C1 5.68 1 4.36 1 3 C0.34 2.67 -0.32 2.34 -1 2 C-0.67 1.34 -0.34 0.68 0 0 Z " fill="#84AE4E" transform="translate(291,225)"/>
<path d="M0 0 C0.81210937 0.29003906 1.62421875 0.58007812 2.4609375 0.87890625 C3.27820313 1.16636719 4.09546875 1.45382813 4.9375 1.75 C5.56398438 1.97816406 6.19046875 2.20632812 6.8359375 2.44140625 C5.8459375 3.10140625 4.8559375 3.76140625 3.8359375 4.44140625 C0.40410432 3.60095731 -1.64934384 2.95612491 -4.1640625 0.44140625 C-2.1640625 -0.55859375 -2.1640625 -0.55859375 0 0 Z " fill="#73A8B7" transform="translate(286.1640625,165.55859375)"/>
<path d="M0 0 C0.99 0.33 1.98 0.66 3 1 C2.67 2.32 2.34 3.64 2 5 C1.34 5 0.68 5 0 5 C0 5.66 0 6.32 0 7 C0.66 7.33 1.32 7.66 2 8 C1.01 8.33 0.02 8.66 -1 9 C-1.125 2.25 -1.125 2.25 0 0 Z " fill="#010604" transform="translate(151,322)"/>
<path d="M0 0 C1.98 0 3.96 0 6 0 C6 1.65 6 3.3 6 5 C4 4 2 3 0 2 C0 1.34 0 0.68 0 0 Z " fill="#151D17" transform="translate(273,308)"/>
<path d="M0 0 C5.53846154 0.61538462 5.53846154 0.61538462 7.875 2.5625 C8.431875 3.2740625 8.431875 3.2740625 9 4 C6 5 6 5 2.8125 3.5625 C1.884375 3.046875 0.95625 2.53125 0 2 C0 1.34 0 0.68 0 0 Z " fill="#6A8981" transform="translate(211,277)"/>
<path d="M0 0 C0.66 0 1.32 0 2 0 C1.82374165 2.37948772 1.30280227 3.70225849 -0.40234375 5.37890625 C-1.90649092 6.62115486 -3.45129851 7.81376056 -5 9 C-5.66 8.67 -6.32 8.34 -7 8 C-5.88200014 6.66079162 -4.75538103 5.32877444 -3.625 4 C-2.68527344 2.88625 -2.68527344 2.88625 -1.7265625 1.75 C-1.15679687 1.1725 -0.58703125 0.595 0 0 Z " fill="#85A962" transform="translate(279,225)"/>
<path d="M0 0 C-3.44069624 2.29379749 -4.72290301 3 -9 3 C-9 2.34 -9 1.68 -9 1 C-5.57367167 -0.61798838 -3.61944899 -1.34053666 0 0 Z " fill="#5E95AC" transform="translate(212,168)"/>
<path d="M0 0 C0.99 0.99 1.98 1.98 3 3 C2.34 4.65 1.68 6.3 1 8 C1.66 8.33 2.32 8.66 3 9 C2.01 9.66 1.02 10.32 0 11 C0 7.37 0 3.74 0 0 Z " fill="#020603" transform="translate(174,316)"/>
<path d="M0 0 C0.66 0 1.32 0 2 0 C3.25541557 3.76624671 2.37061958 5.37188934 1 9 C0.67 9 0.34 9 0 9 C-0.0825 8.21625 -0.165 7.4325 -0.25 6.625 C-0.72806339 3.85250896 -0.72806339 3.85250896 -3.0625 2.6875 C-3.701875 2.460625 -4.34125 2.23375 -5 2 C-3.35 2 -1.7 2 0 2 C0 1.34 0 0.68 0 0 Z " fill="#373F3B" transform="translate(201,315)"/>
<path d="M0 0 C0.99 0.33 1.98 0.66 3 1 C2.67 2.32 2.34 3.64 2 5 C1.34 5 0.68 5 0 5 C-0.66 5.99 -1.32 6.98 -2 8 C-2 5.69 -2 3.38 -2 1 C-1.34 0.67 -0.68 0.34 0 0 Z " fill="#2F5980" transform="translate(204,265)"/>
<path d="M0 0 C2 1 2 1 3 3 C-0.465 4.485 -0.465 4.485 -4 6 C-4.33 5.01 -4.66 4.02 -5 3 C-3.35 2.67 -1.7 2.34 0 2 C0 1.34 0 0.68 0 0 Z " fill="#7CB1C6" transform="translate(244,149)"/>
<path d="M0 0 C3.1875 -0.3125 3.1875 -0.3125 7 0 C9.9375 2.5 9.9375 2.5 12 5 C10.68 5 9.36 5 8 5 C8 4.01 8 3.02 8 2 C5.36 1.67 2.72 1.34 0 1 C0 0.67 0 0.34 0 0 Z " fill="#3F4944" transform="translate(241,312)"/>
<path d="M0 0 C1.65 0 3.3 0 5 0 C4.67 2.64 4.34 5.28 4 8 C2.22293791 5.33440687 1.12451727 2.9719385 0 0 Z " fill="#9EBA7C" transform="translate(278,268)"/>
<path d="M0 0 C2.56695636 0.39491636 4.67123994 0.83561997 7 2 C7 2.66 7 3.32 7 4 C1.25 3.25 1.25 3.25 -1 1 C-0.67 0.67 -0.34 0.34 0 0 Z " fill="#629CB3" transform="translate(258,153)"/>
<path d="M0 0 C0.99 0.33 1.98 0.66 3 1 C2.6875 2.9375 2.6875 2.9375 2 5 C1.01 5.33 0.02 5.66 -1 6 C-1.042721 4.33388095 -1.04063832 2.66617115 -1 1 C-0.67 0.67 -0.34 0.34 0 0 Z " fill="#0E1E0F" transform="translate(215,348)"/>
<path d="M0 0 C1.37562854 1.28965176 2.70766393 2.62689293 4 4 C4 4.66 4 5.32 4 6 C2.35 5.67 0.7 5.34 -1 5 C-0.67 3.35 -0.34 1.7 0 0 Z " fill="#000000" transform="translate(203,344)"/>
<path d="M0 0 C0.99 0.33 1.98 0.66 3 1 C3 1.99 3 2.98 3 4 C2.34 4 1.68 4 1 4 C0.67 4.66 0.34 5.32 0 6 C-0.66 4.35 -1.32 2.7 -2 1 C-1.34 0.67 -0.68 0.34 0 0 Z " fill="#000500" transform="translate(235,341)"/>
<path d="M0 0 C1.65 0 3.3 0 5 0 C4.34 3.3 3.68 6.6 3 10 C2.67 10 2.34 10 2 10 C1.77213542 7.98177083 1.54427083 5.96354167 1.31640625 3.9453125 C1.08707039 1.92595684 1.08707039 1.92595684 0 0 Z " fill="#82A65B" transform="translate(262,258)"/>
<path d="M0 0 C1.17539996 0.92652701 2.34010577 1.86663387 3.5 2.8125 C4.1496875 3.33457031 4.799375 3.85664063 5.46875 4.39453125 C7 6 7 6 7 9 C5.82460004 8.07347299 4.65989423 7.13336613 3.5 6.1875 C2.52546875 5.40439453 2.52546875 5.40439453 1.53125 4.60546875 C0 3 0 3 0 0 Z " fill="#A7C188" transform="translate(294,206)"/>
<path d="M0 0 C2.97 0.495 2.97 0.495 6 1 C6 1.99 6 2.98 6 4 C6.66 4.66 7.32 5.32 8 6 C5 6 5 6 3.61328125 4.6875 C2.40885417 3.125 1.20442708 1.5625 0 0 Z " fill="#B7B280" transform="translate(252,187)"/>
<path d="M0 0 C1 3.875 1 3.875 1 5 C-0.98 5 -2.96 5 -5 5 C-5 4.01 -5 3.02 -5 2 C-3.35 2 -1.7 2 0 2 C0 1.34 0 0.68 0 0 Z " fill="#8D958E" transform="translate(244,346)"/>
<path d="M0 0 C0.99 0.66 1.98 1.32 3 2 C2.67 2.66 2.34 3.32 2 4 C1.34 4 0.68 4 0 4 C-0.33 4.99 -0.66 5.98 -1 7 C-1.66 6.34 -2.32 5.68 -3 5 C-2.01 3.35 -1.02 1.7 0 0 Z " fill="#4B554B" transform="translate(303,342)"/>
<path d="M0 0 C2.31 0 4.62 0 7 0 C7 0.66 7 1.32 7 2 C4.69 2.33 2.38 2.66 0 3 C0 2.01 0 1.02 0 0 Z " fill="#29342B" transform="translate(309,342)"/>
<path d="M0 0 C2.97 0.495 2.97 0.495 6 1 C6 1.66 6 2.32 6 3 C4.35 3.33 2.7 3.66 1 4 C0.67 2.68 0.34 1.36 0 0 Z " fill="#72B188" transform="translate(246,293)"/>
<path d="M0 0 C0.66 0.33 1.32 0.66 2 1 C1.67 1.66 1.34 2.32 1 3 C1.66 3 2.32 3 3 3 C2.34 4.32 1.68 5.64 1 7 C0.01 5.68 -0.98 4.36 -2 3 C-1.34 2.01 -0.68 1.02 0 0 Z " fill="#B8A964" transform="translate(269,199)"/>
<path d="M0 0 C1.98 1.65 3.96 3.3 6 5 C3.50907189 6.24546405 2.58919267 5.7767578 0 5 C0 3.35 0 1.7 0 0 Z " fill="#B0AD7A" transform="translate(263,175)"/>
<path d="" fill="#FFFFFF" transform="translate(0,0)"/>
<path d="" fill="#FFFFFF" transform="translate(0,0)"/>
<path d="" fill="#FFFFFF" transform="translate(0,0)"/>
<path d="" fill="#FFFFFF" transform="translate(0,0)"/>
<path d="" fill="#FFFFFF" transform="translate(0,0)"/>
<path d="" fill="#FFFFFF" transform="translate(0,0)"/>
<path d="" fill="#FFFFFF" transform="translate(0,0)"/>
<path d="" fill="#FFFFFF" transform="translate(0,0)"/>
<path d="" fill="#FFFFFF" transform="translate(0,0)"/>
<path d="" fill="#FFFFFF" transform="translate(0,0)"/>
<path d="" fill="#FFFFFF" transform="translate(0,0)"/>
<path d="" fill="#FFFFFF" transform="translate(0,0)"/>
<path d="" fill="#FFFFFF" transform="translate(0,0)"/>
<path d="" fill="#FFFFFF" transform="translate(0,0)"/>
<path d="" fill="#FFFFFF" transform="translate(0,0)"/>
<path d="" fill="#FFFFFF" transform="translate(0,0)"/>
<path d="" fill="#FFFFFF" transform="translate(0,0)"/>
<path d="" fill="#FFFFFF" transform="translate(0,0)"/>
<path d="" fill="#FFFFFF" transform="translate(0,0)"/>
<path d="" fill="#FFFFFF" transform="translate(0,0)"/>
<path d="" fill="#FFFFFF" transform="translate(0,0)"/>
<path d="" fill="#FFFFFF" transform="translate(0,0)"/>
<path d="" fill="#FFFFFF" transform="translate(0,0)"/>
<path d="" fill="#FFFFFF" transform="translate(0,0)"/>
<path d="" fill="#FFFFFF" transform="translate(0,0)"/>
<path d="" fill="#FFFFFF" transform="translate(0,0)"/>
<path d="" fill="#FFFFFF" transform="translate(0,0)"/>
<path d="" fill="#FFFFFF" transform="translate(0,0)"/>
<path d="" fill="#FFFFFF" transform="translate(0,0)"/>
<path d="" fill="#000000" transform="translate(0,0)"/>
<path d="" fill="#FFFFFF" transform="translate(0,0)"/>
<path d="" fill="#FFFFFF" transform="translate(0,0)"/>
<path d="" fill="#FFFFFF" transform="translate(0,0)"/>
<path d="" fill="#FFFFFF" transform="translate(0,0)"/>
<path d="" fill="#FFFFFF" transform="translate(0,0)"/>
<path d="" fill="#FFFFFF" transform="translate(0,0)"/>
<path d="" fill="#FFFFFF" transform="translate(0,0)"/>
<path d="" fill="#FFFFFF" transform="translate(0,0)"/>
<path d="" fill="#FFFFFF" transform="translate(0,0)"/>
<path d="" fill="#FFFFFF" transform="translate(0,0)"/>
<path d="" fill="#FFFFFF" transform="translate(0,0)"/>
<path d="" fill="#FFFFFF" transform="translate(0,0)"/>
<path d="" fill="#FFFFFF" transform="translate(0,0)"/>
<path d="" fill="#FFFFFF" transform="translate(0,0)"/>
<path d="" fill="#FFFFFF" transform="translate(0,0)"/>
<path d="" fill="#FFFFFF" transform="translate(0,0)"/>
<path d="" fill="#FFFFFF" transform="translate(0,0)"/>
<path d="" fill="#FFFFFF" transform="translate(0,0)"/>
<path d="" fill="#FFFFFF" transform="translate(0,0)"/>
<path d="" fill="#FFFFFF" transform="translate(0,0)"/>
<path d="" fill="#FFFFFF" transform="translate(0,0)"/>
<path d="" fill="#FFFFFF" transform="translate(0,0)"/>
<path d="" fill="#FFFFFF" transform="translate(0,0)"/>
<path d="" fill="#FFFFFF" transform="translate(0,0)"/>
<path d="" fill="#FFFFFF" transform="translate(0,0)"/>
<path d="" fill="#FFFFFF" transform="translate(0,0)"/>
<path d="" fill="#FFFFFF" transform="translate(0,0)"/>
<path d="" fill="#FFFFFF" transform="translate(0,0)"/>
<path d="" fill="#FFFFFF" transform="translate(0,0)"/>
<path d="" fill="#FFFFFF" transform="translate(0,0)"/>
<path d="" fill="#FFFFFF" transform="translate(0,0)"/>
<path d="" fill="#FFFFFF" transform="translate(0,0)"/>
<path d="" fill="#FFFFFF" transform="translate(0,0)"/>
<path d="" fill="#FFFFFF" transform="translate(0,0)"/>
<path d="" fill="#FFFFFF" transform="translate(0,0)"/>
<path d="" fill="#FFFFFF" transform="translate(0,0)"/>
<path d="" fill="#FFFFFF" transform="translate(0,0)"/>
<path d="" fill="#FFFFFF" transform="translate(0,0)"/>
<path d="" fill="#FFFFFF" transform="translate(0,0)"/>
<path d="" fill="#FFFFFF" transform="translate(0,0)"/>
<path d="" fill="#FFFFFF" transform="translate(0,0)"/>
<path d="" fill="#FFFFFF" transform="translate(0,0)"/>
<path d="" fill="#FFFFFF" transform="translate(0,0)"/>
<path d="" fill="#FFFFFF" transform="translate(0,0)"/>
<path d="" fill="#FFFFFF" transform="translate(0,0)"/>
<path d="" fill="#FFFFFF" transform="translate(0,0)"/>
<path d="" fill="#FFFFFF" transform="translate(0,0)"/>
<path d="" fill="#FFFFFF" transform="translate(0,0)"/>
<path d="" fill="#FFFFFF" transform="translate(0,0)"/>
<path d="" fill="#FFFFFF" transform="translate(0,0)"/>
<path d="" fill="#FFFFFF" transform="translate(0,0)"/>
<path d="" fill="#FFFFFF" transform="translate(0,0)"/>
<path d="" fill="#FFFFFF" transform="translate(0,0)"/>
</svg>
